<?xml version="1.0" encoding="UTF-8"?>
<svg version="1.1" xmlns="http://www.w3.org/2000/svg" width="526" height="474">
<path d="M0 0 C1.41976387 -0.00412399 1.41976387 -0.00412399 2.86820984 -0.0083313 C3.90470673 -0.00114075 4.94120361 0.0060498 6.0091095 0.01345825 C7.10194748 0.0131662 8.19478546 0.01287415 9.32073975 0.01257324 C12.94065736 0.01396896 16.56037032 0.02954173 20.18025208 0.04519653 C22.68703092 0.0489258 25.19381122 0.05177318 27.70059204 0.05377197 C33.62915832 0.06063358 39.5576587 0.0764039 45.48619109 0.09647095 C52.89787019 0.12101391 60.30955838 0.13175969 67.7212677 0.14285278 C80.94331037 0.16431489 94.16529219 0.19807581 107.38728333 0.24050903 C107.38728333 3.24050903 107.38728333 3.24050903 106.05915833 4.67800903 C105.1078302 5.45144653 105.1078302 5.45144653 104.13728333 6.24050903 C100.46360634 9.31493374 96.90317687 12.48787887 93.38728333 15.74050903 C90.10949416 18.76058006 86.82144958 21.76255132 83.44978333 24.67800903 C79.31973148 28.25853215 75.32124262 31.97630665 71.31208801 35.69070435 C66.38081285 40.25648835 61.3934601 44.75699998 56.38728333 49.24050903 C54.72022633 50.74007522 53.05356337 52.24007957 51.38728333 53.74050903 C44.72061666 59.74050903 38.05394999 65.74050903 31.38728333 71.74050903 C30.55841614 72.48687622 29.72954895 73.23324341 28.87556458 74.00222778 C27.24952058 75.46490158 25.6219787 76.92591236 23.99275208 78.38504028 C19.21140915 82.67202788 14.47288747 87.00118333 9.76228333 91.36550903 C5.74075521 95.09107303 1.68216473 98.75548504 -2.46427917 102.34207153 C-5.92543499 105.40047467 -9.30015453 108.55200027 -12.68815613 111.69094849 C-17.61936626 116.25661937 -22.60620436 120.75755356 -27.61271667 125.24050903 C-32.83658341 129.93200718 -38.04915345 134.6349707 -43.23771667 139.36550903 C-46.29403616 142.14863795 -49.36228916 144.91030706 -52.48771667 147.61550903 C-56.69011092 151.26450157 -60.757035 155.05559177 -64.83708191 158.83987427 C-67.70609905 161.49615617 -70.58888066 164.12425475 -73.55021667 166.67800903 C-77.32486236 169.9397517 -80.96562103 173.33789008 -84.61271667 176.74050903 C-91.92136493 183.55923481 -91.92136493 183.55923481 -95.67521667 186.80300903 C-104.46044217 194.40204374 -112.85365115 202.45783055 -121.30021667 210.42800903 C-128.51545468 217.23414384 -135.79310875 223.94314559 -143.30021667 230.42800903 C-148.02179058 234.53414357 -152.55507023 238.84222915 -157.11882019 243.12161255 C-160.86373216 246.62705969 -164.64680367 250.06550566 -168.53459167 253.41238403 C-171.39786114 255.93120003 -174.19053144 258.52373958 -176.98771667 261.11550903 C-182.48512757 266.20734725 -188.01362575 271.260265 -193.61271667 276.24050903 C-194.65299011 277.17443481 -194.65299011 277.17443481 -195.71427917 278.12722778 C-200.37408031 282.24050903 -200.37408031 282.24050903 -202.61271667 282.24050903 C-202.93826549 269.05351483 -203.18643254 255.86748853 -203.33808708 242.67728233 C-203.41090733 236.55107264 -203.50952702 230.42762756 -203.66886902 224.30300903 C-203.82191171 218.38291261 -203.9048808 212.46546016 -203.94099808 206.54353714 C-203.96670584 204.29390479 -204.01691236 202.04440421 -204.09293747 199.79590988 C-204.72356647 180.35696218 -204.72356647 180.35696218 -197.70959663 172.79545021 C-194.82109839 170.06663509 -191.78110464 167.63215041 -188.61271667 165.24050903 C-187.22716687 164.02324677 -185.84818284 162.79824295 -184.48771667 161.55300903 C-183.58666199 160.7892395 -183.58666199 160.7892395 -182.66740417 160.01004028 C-179.92552606 157.64868898 -177.27217563 155.19359529 -174.61271667 152.74050903 C-170.70325268 149.14000515 -166.75404252 145.59632476 -162.73771667 142.11550903 C-159.99448249 139.69500828 -157.30387099 137.21850261 -154.61271667 134.74050903 C-151.31242745 131.70162886 -148.00322384 128.67894858 -144.61271667 125.74050903 C-141.26770509 122.83964837 -137.99685924 119.86205695 -134.73771667 116.86550903 C-119.93190244 103.26667794 -119.93190244 103.26667794 -112.92521667 97.61550903 C-109.19693265 94.60159552 -105.7970166 91.4891259 -102.47599792 88.04129028 C-100.20047482 85.84209499 -97.77285537 83.90266175 -95.30021667 81.92800903 C-90.5236007 78.08708633 -86.22789678 73.95793326 -81.94474792 69.58035278 C-79.28878585 66.91549301 -76.51346823 64.45085387 -73.65959167 62.00222778 C-67.47785446 56.68168678 -61.49087466 51.13569768 -55.48771667 45.61550903 C-51.61148799 42.05113281 -47.69445749 38.54382772 -43.71427917 35.09597778 C-41.1010893 32.78879341 -38.5465948 30.41992984 -35.98771667 28.05300903 C-31.53809461 23.93946329 -26.98692374 19.96885332 -22.36271667 16.05300903 C-17.74767654 12.14488431 -13.33724922 8.15054989 -9.16349792 3.76394653 C-6.13263155 0.78652113 -4.12592311 -0.00924059 0 0 Z " fill="#0E1316" transform="translate(298.6127166748047,79.75949096679688)"/>
<path d="M0 0 C8.69507876 6.95606301 15.85373929 15.48508379 23.125 23.875 C26.02055993 27.15663458 28.99480098 30.3659062 31.9597168 33.5847168 C34.45111802 36.29435539 36.91153339 39.02251601 39.3125 41.8125 C43.37006696 46.49884247 47.6422185 50.98558374 51.8815918 55.5065918 C55.38433371 59.24867761 58.8210735 63.02804991 62.1640625 66.9140625 C64.72491983 69.82363231 67.36415072 72.6584259 70 75.5 C73.80719454 79.60579803 77.56313532 83.74128327 81.2265625 87.9765625 C83.45138092 90.51501171 85.72503319 93.00641776 88 95.5 C90.82577384 98.59731967 93.63218779 101.7040415 96.375 104.875 C100.95080537 110.13825031 105.72301277 115.22203392 110.46240234 120.33740234 C113.74440204 123.88621434 117.00557173 127.45413823 120.26953125 131.01953125 C122.13885919 133.06143328 124.01159841 135.10013497 125.88671875 137.13671875 C130.99990446 142.69362498 136.06702839 148.28167968 141 154 C141.58007812 154.66257812 142.16015625 155.32515625 142.7578125 156.0078125 C147 160.88139535 147 160.88139535 147 162 C133.96958931 162.1623542 120.93942014 162.28665325 107.90820312 162.3626852 C101.8568951 162.39918133 95.80628022 162.44866738 89.75537109 162.52807617 C83.91331188 162.60426234 78.07191837 162.64601752 72.22940063 162.6641407 C70.00303673 162.67705197 67.77670833 162.70226548 65.55062866 162.7401104 C62.42618758 162.79110451 59.3044793 162.79791629 56.1796875 162.79467773 C54.80619392 162.83242813 54.80619392 162.83242813 53.404953 162.87094116 C47.21285447 162.80172353 44.12552605 161.18343878 39.70950317 156.85731602 C37.43284623 154.38380706 35.19032077 151.89250058 33.01171875 149.33203125 C30.58679715 146.52100562 28.08277144 143.7876783 25.5625 141.0625 C25.05879883 140.51770996 24.55509766 139.97291992 24.03613281 139.41162109 C19.03063603 134.01224413 13.97791887 128.65742139 8.92626953 123.30126953 C4.42135093 118.52130701 -0.04998617 113.7125959 -4.49658203 108.87841797 C-9.06397038 103.91800393 -13.67600994 99.00007096 -18.29101562 94.08398438 C-22.55516398 89.54164489 -26.81247801 84.99305958 -31.0625 80.4375 C-31.6287207 79.83075439 -32.19494141 79.22400879 -32.77832031 78.59887695 C-35.80333347 75.3567473 -38.82632238 72.11274615 -41.84765625 68.8671875 C-42.47986084 68.18857666 -43.11206543 67.50996582 -43.76342773 66.81079102 C-44.97058533 65.5149766 -46.1771641 64.21862263 -47.38305664 62.92163086 C-48.20277954 62.04196655 -48.20277954 62.04196655 -49.0390625 61.14453125 C-49.54727539 60.59490723 -50.05548828 60.0452832 -50.57910156 59.47900391 C-51.81034781 58.19740773 -53.12949473 57.00138323 -54.4609375 55.82421875 C-56 54 -56 54 -55.97265625 51.98828125 C-54.78386513 49.55818214 -53.38924155 48.06285245 -51.4375 46.1875 C-50.70917969 45.48625 -49.98085937 44.785 -49.23046875 44.0625 C-46.61664257 41.64551187 -43.95578643 39.29502989 -41.2578125 36.97265625 C-38.50553512 34.56798484 -35.8137368 32.10008205 -33.125 29.625 C-28.58877123 25.45221007 -24.0290463 21.30776385 -19.44140625 17.19140625 C-17.75906498 15.68133672 -16.07954003 14.16812565 -14.40234375 12.65234375 C-9.65737484 8.36541105 -4.87767944 4.13542387 0 0 Z " fill="#0E1316" transform="translate(271,237)"/>
<path d="M0 0 C30.36 0 60.72 0 92 0 C92.33 12.065625 92.66 24.13125 93 36.5625 C93.14566406 40.34146729 93.29132813 44.12043457 93.44140625 48.01391602 C94.01175337 73.33406959 94.01175337 73.33406959 88.6484375 80.50341797 C85.48766944 83.80135844 82.04589752 86.31388292 78.1321106 88.64630127 C74.40846654 91.0104808 71.24142299 94.02537787 68 97 C67.47858429 97.47258743 66.95716858 97.94517487 66.41995239 98.43208313 C64.98228602 99.73980584 63.5535136 101.05728524 62.125 102.375 C55.99905215 108.01226825 49.8158434 113.58385215 43.61328125 119.13671875 C40.00681102 122.37150767 36.40783536 125.61113725 32.8671875 128.91796875 C26.90934327 134.47773678 20.87981866 139.80045098 14.5078125 144.890625 C11.35438478 147.54304084 8.53943646 150.43655296 5.75390625 153.46875 C4 155 4 155 0 156 C0 104.52 0 53.04 0 0 Z " fill="#0E1316" transform="translate(96,80)"/>
<path d="M0 0 C0 28.05 0 56.1 0 85 C-30.03 85 -60.06 85 -91 85 C-91 81 -91 81 -89.70703125 79.5 C-89.08183594 79.005 -88.45664063 78.51 -87.8125 78 C-83.96120227 74.82353143 -80.27594749 71.52667958 -76.625 68.125 C-71.12985605 63.0306095 -65.58294578 57.99815277 -60 53 C-54.64060484 48.19472648 -49.30135118 43.36927672 -44 38.5 C-37.47988081 32.5126451 -30.94740689 26.53928392 -24.25 20.75 C-21.59544664 18.4504795 -19.01553561 16.08503384 -16.4609375 13.67578125 C-15.83026367 13.08249023 -15.19958984 12.48919922 -14.54980469 11.87792969 C-13.27811278 10.67850034 -12.01044429 9.47478916 -10.74707031 8.26660156 C-6.2208277 4 -6.2208277 4 -4 4 C-4 3.34 -4 2.68 -4 2 C-1 0 -1 0 0 0 Z " fill="#111618" transform="translate(187,314)"/>
<path d="M0 0 C0.86625 0.37125 0.86625 0.37125 1.75 0.75 C1.75 1.41 1.75 2.07 1.75 2.75 C2.306875 2.523125 2.86375 2.29625 3.4375 2.0625 C6.71049601 1.62020324 8.16983352 2.81487514 10.75 4.75 C10.75 5.41 10.75 6.07 10.75 6.75 C11.41 7.08 12.07 7.41 12.75 7.75 C12.09 7.75 11.43 7.75 10.75 7.75 C10.853125 8.9875 10.95625 10.225 11.0625 11.5 C11.06873446 15.0100012 10.95033275 15.52184325 8.5 18.3125 C5.75 19.75 5.75 19.75 3.5 19.625 C1.75 18.75 1.75 18.75 0.75 16.75 C2.4 16.42 4.05 16.09 5.75 15.75 C6.08 14.1 6.41 12.45 6.75 10.75 C6.09 11.100625 5.43 11.45125 4.75 11.8125 C0.6986909 13.07853409 -2.08374555 12.45614482 -6.25 11.75 C-6.73590022 4.46149675 -6.73590022 4.46149675 -4.5 1.1875 C-2.25 -0.25 -2.25 -0.25 0 0 Z " fill="#151A1D" transform="translate(218.25,183.25)"/>
<path d="M0 0 C3.3 0 6.6 0 10 0 C6.63890442 6.72219117 1.35004004 11.12802436 -5 15 C-5.33 13.35 -5.66 11.7 -6 10 C-5.34 10 -4.68 10 -4 10 C-3.71125 9.0925 -3.4225 8.185 -3.125 7.25 C-2 4 -2 4 0 0 Z " fill="#181B1D" transform="translate(395,81)"/>
<path d="M0 0 C0 27.72 0 55.44 0 84 C-0.33 84 -0.66 84 -1 84 C-1.00808685 83.00219513 -1.01617371 82.00439026 -1.02450562 80.97634888 C-1.10188054 71.58795671 -1.18959759 62.19971102 -1.28752708 52.81151009 C-1.33754286 47.98455828 -1.38387225 43.15762893 -1.421875 38.33056641 C-1.45866132 33.67503478 -1.50500275 29.01968864 -1.55806351 24.36431503 C-1.57664296 22.58528766 -1.59173769 20.80622047 -1.60334396 19.02713394 C-1.62014598 16.54149495 -1.64916548 14.0562841 -1.68115234 11.57080078 C-1.68331253 10.82993225 -1.68547272 10.08906372 -1.68769836 9.32574463 C-1.63261429 5.20994852 -1.63261429 5.20994852 -4 2 C-1 0 -1 0 0 0 Z " fill="#4D5051" transform="translate(187,314)"/>
<path d="M0 0 C0.66 0.33 1.32 0.66 2 1 C0.07119658 4.40755272 -1.8276509 7.74147635 -4 11 C-3.67 11.66 -3.34 12.32 -3 13 C-5.31 13 -7.62 13 -10 13 C-8.65515286 8.95838045 -6.9494838 6.61321846 -3.875 3.6875 C-3.15054688 2.99011719 -2.42609375 2.29273438 -1.6796875 1.57421875 C-1.12539062 1.05472656 -0.57109375 0.53523438 0 0 Z " fill="#242729" transform="translate(107,385)"/>
<path d="M0 0 C0 4.39570489 -2.53711638 5.99126478 -5.46875 9.0625 C-7.31002725 10.9806892 -7.31002725 10.9806892 -7 14 C-13.625 16 -13.625 16 -17 16 C-12.73502369 11.61507124 -8.34080571 7.46548545 -3.69921875 3.48046875 C-2.42270555 2.36828828 -1.19716986 1.19716986 0 0 Z " fill="#3E4143" transform="translate(150,209)"/>
<path d="M0 0 C1.98 0.66 3.96 1.32 6 2 C5.07038578 3.15224028 4.1309875 4.29659176 3.1875 5.4375 C2.40439453 6.39462891 2.40439453 6.39462891 1.60546875 7.37109375 C0 9 0 9 -3 10 C-3.125 4.25 -3.125 4.25 -2 2 C-1.34 2 -0.68 2 0 2 C0 1.34 0 0.68 0 0 Z " fill="#232729" transform="translate(101,225)"/>
<path d="M0 0 C5.875 4.625 5.875 4.625 7 8 C4.36 8.66 1.72 9.32 -1 10 C-1 8.68 -1 7.36 -1 6 C-0.34 6 0.32 6 1 6 C0.67 4.02 0.34 2.04 0 0 Z " fill="#262A2C" transform="translate(301,270)"/>
<path d="M0 0 C3.79588866 0.54226981 5.47211993 2.20127563 8 5 C7.67 5.99 7.34 6.98 7 8 C6.34 8 5.68 8 5 8 C5 7.34 5 6.68 5 6 C3.35 5.67 1.7 5.34 0 5 C0 3.35 0 1.7 0 0 Z " fill="#26292B" transform="translate(397,378)"/>
<path d="M0 0 C0.66 0.33 1.32 0.66 2 1 C-1.35233641 5.20482058 -4.24150021 8.37030275 -9 11 C-10.36984198 12.29579647 -11.7151049 13.61992749 -13 15 C-13.66 14.67 -14.32 14.34 -15 14 C-10.20922972 9.0744893 -5.22325977 4.46351289 0 0 Z " fill="#484A4C" transform="translate(278,94)"/>
<path d="M0 0 C0.66 0.33 1.32 0.66 2 1 C1.38511719 1.68835938 1.38511719 1.68835938 0.7578125 2.390625 C0.21898438 3.00421875 -0.31984375 3.6178125 -0.875 4.25 C-1.40867187 4.85328125 -1.94234375 5.4565625 -2.4921875 6.078125 C-3.9797487 7.97418746 -5.00322436 9.81290005 -6 12 C-7.65 12 -9.3 12 -11 12 C-7.49102731 7.81576108 -3.91939465 3.80411834 0 0 Z " fill="#3A3E40" transform="translate(110,245)"/>
<path d="M0 0 C1.32 0.33 2.64 0.66 4 1 C2.8125 3.4375 2.8125 3.4375 1 6 C-1.6875 6.8125 -1.6875 6.8125 -4 7 C-4 5.68 -4 4.36 -4 3 C-3.01 2.67 -2.02 2.34 -1 2 C-0.67 1.34 -0.34 0.68 0 0 Z " fill="#181C1F" transform="translate(170,85)"/>
<path d="M0 0 C2.125 1.875 2.125 1.875 4 4 C4 4.66 4 5.32 4 6 C2.25 6.6875 2.25 6.6875 0 7 C-2.25 5.75 -2.25 5.75 -4 4 C-4 3.01 -4 2.02 -4 1 C-2 0 -2 0 0 0 Z " fill="#171C1E" transform="translate(336,391)"/>
<path d="M0 0 C1.14926266 0.95421808 2.29430541 1.91352045 3.4375 2.875 C4.07558594 3.40867187 4.71367187 3.94234375 5.37109375 4.4921875 C7 6 7 6 8 8 C1.47692308 6.64615385 1.47692308 6.64615385 -0.9375 3.375 C-1.288125 2.59125 -1.63875 1.8075 -2 1 C-1.34 0.67 -0.68 0.34 0 0 Z " fill="#363839" transform="translate(377,354)"/>
<path d="M0 0 C0.86625 0.37125 0.86625 0.37125 1.75 0.75 C1.29625 1.183125 0.8425 1.61625 0.375 2.0625 C-1.45024334 3.85798342 -1.45024334 3.85798342 -3.25 6.75 C-5.375 7.4375 -5.375 7.4375 -7.25 7.75 C-6.66524269 3.65669884 -4.62230386 -0.51358932 0 0 Z " fill="#2E3134" transform="translate(173.25,190.25)"/>
<path d="M0 0 C2.31 1.98 4.62 3.96 7 6 C6.67 6.66 6.34 7.32 6 8 C4.1875 7.875 4.1875 7.875 2 7 C0.25 3.9375 0.25 3.9375 -1 1 C-0.67 0.67 -0.34 0.34 0 0 Z " fill="#343739" transform="translate(312,282)"/>
<path d="M0 0 C0.99 0.66 1.98 1.32 3 2 C2.67 2.99 2.34 3.98 2 5 C1.01 5 0.02 5 -1 5 C-1.33 5.66 -1.66 6.32 -2 7 C-2.66 6.67 -3.32 6.34 -4 6 C-4 4 -4 4 -2 1.875 C-1.34 1.25625 -0.68 0.6375 0 0 Z " fill="#23282A" transform="translate(325,296)"/>
<path d="M0 0 C0.66 0.66 1.32 1.32 2 2 C1.67 2.66 1.34 3.32 1 4 C1.27942455 5.67654729 1.60828247 7.34608154 2 9 C-1.81538462 6.53846154 -1.81538462 6.53846154 -2.75 3.8125 C-2.8325 3.214375 -2.915 2.61625 -3 2 C-2.01 1.34 -1.02 0.68 0 0 Z " fill="#202527" transform="translate(221,289)"/>
<path d="M0 0 C0.99 0.33 1.98 0.66 3 1 C2.34 2.65 1.68 4.3 1 6 C-0.65 6 -2.3 6 -4 6 C-2.84826645 3.53199953 -1.95216435 1.95216435 0 0 Z " fill="#1D2122" transform="translate(242,263)"/>
<path d="M0 0 C-1.45255699 3.82946843 -3.42895561 5.12050295 -7 7 C-7 5.68 -7 4.36 -7 3 C-6.34 3 -5.68 3 -5 3 C-5 2.34 -5 1.68 -5 1 C-2 0 -2 0 0 0 Z " fill="#303335" transform="translate(114,220)"/>
<path d="M0 0 C0.66 0.33 1.32 0.66 2 1 C2.625 3.5625 2.625 3.5625 3 6 C2.01 6 1.02 6 0 6 C0 5.34 0 4.68 0 4 C-1.65 4.66 -3.3 5.32 -5 6 C-3.35 4.02 -1.7 2.04 0 0 Z " fill="#2C3032" transform="translate(188,175)"/>
<path d="M0 0 C0.99 0.33 1.98 0.66 3 1 C1.60667426 4.36720387 0.0210714 5.9859524 -3 8 C-2.37240135 5.07120629 -1.41377341 2.63904371 0 0 Z " fill="#2A2D2F" transform="translate(155,179)"/>
<path d="M0 0 C2 1.3125 2 1.3125 4 3 C4 3.99 4 4.98 4 6 C2.35 6 0.7 6 -1 6 C-1.33 5.01 -1.66 4.02 -2 3 C-1.34 2.67 -0.68 2.34 0 2 C0 1.34 0 0.68 0 0 Z " fill="#333536" transform="translate(412,392)"/>
<path d="M0 0 C1.32 0 2.64 0 4 0 C4 1.32 4 2.64 4 4 C3.34 3.67 2.68 3.34 2 3 C0.35 4.32 -1.3 5.64 -3 7 C-2.25 2.25 -2.25 2.25 0 0 Z " fill="#14191C" transform="translate(182,378)"/>
<path d="M0 0 C2.0625 0.4375 2.0625 0.4375 4 1 C3.1875 2.9375 3.1875 2.9375 2 5 C1.01 5.33 0.02 5.66 -1 6 C-1.042721 4.33388095 -1.04063832 2.66617115 -1 1 C-0.67 0.67 -0.34 0.34 0 0 Z " fill="#171A1C" transform="translate(98,355)"/>
<path d="M0 0 C0.33 1.32 0.66 2.64 1 4 C-4.2734375 7.22265625 -4.2734375 7.22265625 -6 8 C-6.66 7.67 -7.32 7.34 -8 7 C-5.36 4.69 -2.72 2.38 0 0 Z " fill="#303336" transform="translate(165,333)"/>
<path d="M0 0 C-0.125 1.75 -0.125 1.75 -1 4 C-4.0625 6.25 -4.0625 6.25 -7 8 C-7 7.01 -7 6.02 -7 5 C-6.34 5 -5.68 5 -5 5 C-4.87625 4.360625 -4.7525 3.72125 -4.625 3.0625 C-4.41875 2.381875 -4.2125 1.70125 -4 1 C-2 0 -2 0 0 0 Z " fill="#2F3233" transform="translate(148,314)"/>
<path d="M0 0 C0.66 0 1.32 0 2 0 C1.67 0.66 1.34 1.32 1 2 C0.67 1.34 0.34 0.68 0 0 Z M-1 2 C-0.34 2 0.32 2 1 2 C1.33 2.99 1.66 3.98 2 5 C2.66 5.66 3.32 6.32 4 7 C3.01 7.66 2.02 8.32 1 9 C-0.5625 7.75 -0.5625 7.75 -2 6 C-1.6875 3.8125 -1.6875 3.8125 -1 2 Z " fill="#2A2D30" transform="translate(394,83)"/>
<path d="M0 0 C0.66 0.33 1.32 0.66 2 1 C0.68 3.31 -0.64 5.62 -2 8 C-2.99 7.67 -3.98 7.34 -5 7 C-3.70700306 4.11562221 -2.34058637 2.12780579 0 0 Z " fill="#2E3132" transform="translate(255,251)"/>
<path d="M0 0 C0.99 0.33 1.98 0.66 3 1 C3 1.99 3 2.98 3 4 C1 5.6875 1 5.6875 -1 7 C-1.04254356 5.00045254 -1.04080783 2.99958364 -1 1 C-0.67 0.67 -0.34 0.34 0 0 Z " fill="#333638" transform="translate(218,246)"/>
<path d="M0 0 C1.98 1.65 3.96 3.3 6 5 C5.67 5.66 5.34 6.32 5 7 C4.34 7 3.68 7 3 7 C1.61767557 5.37373596 0.28062485 3.7074998 -1 2 C-0.67 1.34 -0.34 0.68 0 0 Z " fill="#272B2C" transform="translate(385,363)"/>
<path d="M0 0 C0.99 0.99 1.98 1.98 3 3 C2.38125 3.28875 1.7625 3.5775 1.125 3.875 C-1.13325765 4.93720042 -1.13325765 4.93720042 -3 7 C-3.33 6.01 -3.66 5.02 -4 4 C-2.68 2.68 -1.36 1.36 0 0 Z " fill="#080D0D" transform="translate(157,205)"/>
</svg>
