<?xml version="1.0" encoding="UTF-8"?>
<svg version="1.1" xmlns="http://www.w3.org/2000/svg" width="500" height="500">
<path d="M0 0 C144.54 0 289.08 0 438 0 C438 5.71032712 437.92039712 11.00460001 437.41085815 16.6363678 C437.34725001 17.3517563 437.28364187 18.0671448 437.21810621 18.80421174 C437.00580268 21.18111138 436.78781265 23.55745341 436.56982422 25.93383789 C436.41456223 27.65911161 436.2596614 29.38441787 436.10509014 31.10975361 C435.76995691 34.8418419 435.43228537 38.57368879 435.09265327 42.30537033 C434.54392248 48.33478244 434.00086815 54.36469826 433.45848083 60.39468384 C432.67673908 69.07952404 431.89242425 77.76412845 431.10635376 86.44857788 C429.1363314 108.21576433 427.1803008 129.98421148 425.22383618 151.75261998 C424.90906569 155.25431959 424.59414426 158.7560056 424.27918816 162.25768852 C421.46338348 193.56727648 418.67391323 224.87902412 415.93359375 256.1953125 C415.85508399 257.09250307 415.77657423 257.98969364 415.69568539 258.9140718 C413.95145727 278.85116192 412.21614729 298.78902804 410.48223495 318.72701752 C409.39635245 331.21258593 408.30466757 343.69763888 407.20887756 356.18234158 C406.41310613 365.25390395 405.62539056 374.32613384 404.84252983 383.39881939 C404.21085847 390.71348572 403.57259117 398.02756059 402.9299807 405.34127384 C402.54245535 409.75457157 402.15792656 414.16808277 401.78078651 418.58228111 C401.4299198 422.68817122 401.07106505 426.79328367 400.70600724 430.89793563 C400.57289671 432.41092067 400.44276399 433.92417097 400.31576705 435.43768144 C400.14158911 437.50817814 399.9568688 439.57747044 399.76945496 441.64680481 C399.61814511 443.38814052 399.61814511 443.38814052 399.4637785 445.16465473 C399 448 399 448 397 451 C394.28964414 451.99665979 391.66905983 452.81967884 388.89111328 453.57763672 C388.04582597 453.81783633 387.20053865 454.05803595 386.32963657 454.30551434 C383.49611564 455.10769398 380.6583413 455.89361835 377.8203125 456.6796875 C375.80912355 457.24554124 373.79820866 457.81236989 371.78755188 458.38011169 C366.36294299 459.90857909 360.93445074 461.42278174 355.50489426 462.93356705 C349.87921348 464.50053952 344.2563431 466.07753768 338.63305664 467.65307617 C330.64075999 469.89105426 322.64696097 472.1235524 314.6516428 474.35071087 C303.20977878 477.53842841 291.77662894 480.75516012 280.35113525 484.0010376 C274.17801901 485.75451856 268.0014119 487.49551263 261.82344055 489.23180389 C257.74313111 490.37899637 253.66455238 491.5316328 249.58966064 492.69793701 C245.80217298 493.78155787 242.01034194 494.84833562 238.21449852 495.90229988 C236.84743257 496.28496605 235.48201347 496.67357921 234.11855507 497.06890678 C221.35484547 500.76346231 212.62311125 499.45089791 200.0390625 495.87890625 C198.27002815 495.38741844 198.27002815 495.38741844 196.46525574 494.88600159 C193.20266369 493.97748801 189.9423585 493.06147181 186.68286514 492.14194489 C183.90731233 491.36041657 181.13002809 490.58514654 178.35270405 489.80994034 C168.81036762 487.14638284 159.27419522 484.46109004 149.73896027 481.77223969 C146.89294686 480.96981677 144.04680091 480.16786548 141.20062256 479.36602783 C118.86538683 473.07340349 96.53382977 466.7678092 74.20703125 460.4453125 C73.32658834 460.19602053 72.44614544 459.94672855 71.53902245 459.68988228 C70.6854497 459.44816732 69.83187695 459.20645237 68.95243835 458.95741272 C68.12302262 458.72257581 67.29360689 458.4877389 66.43905735 458.24578571 C64.84229765 457.79308011 63.24579323 457.33947292 61.64957333 456.88486767 C58.02759368 455.8536094 54.40356203 454.83344036 50.76986694 453.84417725 C49.50091583 453.49453918 48.23196472 453.14490112 46.92456055 452.78466797 C45.2702729 452.33630081 45.2702729 452.33630081 43.58256531 451.87887573 C41 451 41 451 39 449 C38.53919697 446.37485504 38.53919697 446.37485504 38.23713684 442.97131348 C38.11829132 441.68190353 37.9994458 440.39249359 37.8769989 439.06401062 C37.75352583 437.62406825 37.63022553 436.18411105 37.50708008 434.74414062 C37.37113174 433.23152337 37.23439312 431.71897697 37.09692383 430.20649719 C36.72270251 426.06351052 36.35978718 421.91959977 35.9987967 417.77544212 C35.61203171 413.35693156 35.2151591 408.93932816 34.81950378 404.52160645 C34.14871525 397.01606134 33.48454131 389.50995515 32.82495117 382.00341797 C31.9228912 371.73749669 31.0096218 361.47259985 30.09359109 351.20791709 C26.7645147 313.88589013 23.52360161 276.55682761 20.35818386 239.22058988 C17.94025056 210.70742 15.43481648 182.20264731 12.88193965 153.7012496 C12.59906698 150.54309395 12.31636107 147.38492341 12.03369331 144.22674942 C10.31950945 125.07698073 8.60170133 105.92753842 6.87866211 86.77856445 C6.01245672 77.15167971 5.14910112 67.52454368 4.28886789 57.8971234 C3.75267608 51.89807369 3.2130241 45.89934937 2.6706363 39.90085685 C2.33813934 36.21432588 2.00898109 32.52750247 1.68077087 28.84058762 C1.52897561 27.14292442 1.37582191 25.44538203 1.22117424 23.7479763 C1.00983646 21.4261655 0.80347615 19.10396163 0.59828186 16.78160095 C0.48200974 15.48790053 0.36573763 14.19420012 0.24594212 12.86129665 C-0.02661872 8.58208548 0 4.28788266 0 0 Z M316 139 C310.04877804 144.78842258 304.62498179 150.92099593 299.2421875 157.234375 C293.66768267 163.76691304 288.03827719 170.22009176 282.234375 176.55078125 C279.70704326 179.32112566 277.23833965 182.13670665 274.78515625 184.97265625 C273.45952174 186.47813615 272.10913074 187.96189176 270.74609375 189.43359375 C266.73029055 193.78018799 263.17952594 197.98385501 260.15625 203.0703125 C256.83611328 208.61135148 253.35147935 212.88755594 248.1875 216.8125 C243.51985305 220.38964015 240.10200331 224.31855616 236.48828125 228.93359375 C233.59473918 232.49941875 230.51801388 235.84227262 227.375 239.1875 C223.40447461 243.4194755 219.47721651 247.66642884 215.6875 252.0625 C212.84840724 255.3221991 209.92635711 258.50742611 207.015625 261.703125 C203.38707797 265.36555976 203.38707797 265.36555976 202 270 C202.64324219 269.98952637 203.28648437 269.97905273 203.94921875 269.96826172 C247.18160599 269.35924628 247.18160599 269.35924628 259.4765625 281.234375 C267.53760221 290.57691333 270.77144479 302.60097836 270.21875 314.8984375 C269.11235609 325.52772186 265.80985514 335.36369719 258 343 C246.09446333 352.20078368 231.85356207 353.61853846 217.31640625 353.390625 C215.88053691 353.3831364 214.44465715 353.37745592 213.0087738 353.37347412 C209.28504685 353.358423 205.5619746 353.31932781 201.83850098 353.2746582 C197.34125036 353.22593497 192.84377705 353.2080733 188.34633636 353.18484497 C181.56377316 353.14645623 174.78263767 353.06966475 168 353 C167.67 338.48 167.34 323.96 167 309 C163.17383435 312.06093252 160.79260589 314.27256434 157.875 318 C153.64071149 323.2858035 149.16190603 328.25937316 144.5625 333.22265625 C141.89813861 336.1104016 139.30619297 339.04969384 136.734375 342.01953125 C134.72735462 344.31133155 132.67597149 346.55996752 130.625 348.8125 C126.74978312 353.09872474 123.10069133 357.51545323 119.55078125 362.07421875 C117.58053597 364.33411724 115.83311627 366.02813891 113.54296875 367.89453125 C108.79509375 371.95368458 104.51852045 375.64385738 103.52412415 382.0801239 C103.41686106 385.57018107 103.48102751 389.00771219 103.62890625 392.49609375 C103.66908875 394.30249329 103.66908875 394.30249329 103.71008301 396.14538574 C103.77965185 399.09876597 103.87698612 402.04844381 104 405 C120.03112342 405.04704905 136.0622239 405.082148 152.0934 405.10362434 C159.53958529 405.1138682 166.98572729 405.12779385 174.43188477 405.15087891 C180.93386094 405.17102687 187.43580573 405.18376625 193.93781227 405.18817699 C197.36975528 405.19074881 200.80160862 405.196643 204.23352242 405.21146011 C242.34392002 405.35746674 282.39129726 404.14751904 311.6875 376.44140625 C328.5033835 358.68815087 334.58602618 335.74608212 334.1875 311.66015625 C333.21361141 292.64903938 327.33582284 274.16895354 313 261 C306.03732217 255.43534016 298.94155361 251.14612409 290.55859375 247.97265625 C288.28122217 247.10690736 286.15524773 246.13087116 284 245 C285.12535156 244.48953125 285.12535156 244.48953125 286.2734375 243.96875 C303.90024405 235.6215469 315.75584996 223.00805659 323 205 C325.42363699 197.8213382 326.59719816 190.55253452 327 183 C327.04125 182.3090625 327.0825 181.618125 327.125 180.90625 C327.4354754 170.50532422 325.61870842 160.23264914 322.625 150.3125 C322.42817627 149.6414624 322.23135254 148.9704248 322.02856445 148.27905273 C320.73616324 144.24986231 319.24294461 141.72545345 316 139 Z " fill="#5709C8" transform="translate(31,0)"/>
<path d="M0 0 C172.7381993 0 172.7381993 0 200.78125 26.734375 C210.99498439 37.16389251 210.99498439 37.16389251 214 43 C212.8765551 45.2468898 211.82093004 46.06302028 209.875 47.625 C205.79079333 51.07388563 202.43845218 54.9192709 199 59 C197.06632688 61.27410853 195.1274909 63.54377993 193.1875 65.8125 C192.67203613 66.41594238 192.15657227 67.01938477 191.62548828 67.64111328 C187.58121211 72.3600672 183.43437141 76.96957497 179.234375 81.55078125 C176.70704326 84.32112566 174.23833965 87.13670665 171.78515625 89.97265625 C170.45952174 91.47813615 169.10913074 92.96189176 167.74609375 94.43359375 C163.72882779 98.78177124 160.17960712 102.98800857 157.15234375 108.07421875 C153.681771 113.87419287 149.96071776 118.18159751 144.625 122.375 C140.09566178 125.94855045 136.69850068 129.60788364 133.23046875 134.19140625 C130.46717371 137.67093188 127.4790375 140.88891061 124.4375 144.125 C120.44389978 148.37974203 116.49057731 152.64623684 112.68359375 157.0703125 C110.59961892 159.45890546 108.45288867 161.78687688 106.3125 164.125 C103.17387559 167.5956973 100.42107162 170.99996863 98 175 C98.72703125 174.9278125 99.4540625 174.855625 100.203125 174.78125 C118.32986617 173.10801235 139.34800072 172.16590058 154.375 184.1875 C163.77092958 193.30995138 166.92359806 204.91010614 167.3125 217.8125 C166.81752547 228.82568321 163.38810851 239.22946056 155.765625 247.41015625 C143.9703224 258.03114775 128.54567362 259.63058727 113.3515625 259.42578125 C111.91808532 259.42084014 110.48460159 259.41755251 109.05111694 259.41581726 C106.08464089 259.40826771 103.11866318 259.38796859 100.15234375 259.35668945 C96.344783 259.31660987 92.53753972 259.29898958 88.72979164 259.28938007 C85.08283906 259.27945126 81.43596376 259.25959097 77.7890625 259.23828125 C77.09471729 259.2348855 76.40037209 259.23148975 75.68498611 259.2279911 C73.73737899 259.21647914 71.7898241 259.19695403 69.84228516 259.17700195 C68.73503082 259.16715775 67.62777649 259.15731354 66.48696899 259.14717102 C64 259 64 259 63 258 C62.87814857 256.65016252 62.82233169 255.29425299 62.79467773 253.93920898 C62.7647599 252.64798378 62.7647599 252.64798378 62.73423767 251.33067322 C62.71752518 250.39526199 62.70081268 249.45985077 62.68359375 248.49609375 C62.66281265 247.54307877 62.64203156 246.59006378 62.62062073 245.60816956 C62.55501823 242.5513559 62.49619082 239.49445344 62.4375 236.4375 C62.39432494 234.37043337 62.35071099 232.30337586 62.30664062 230.23632812 C62.19932599 225.15764405 62.09808909 220.0788703 62 215 C55.19592814 222.47133634 55.19592814 222.47133634 48.75 230.25 C44.08941135 236.01441228 39.06220719 241.38851953 33.99609375 246.79296875 C29.61883286 251.4639332 25.4485711 256.29747541 21.30078125 261.171875 C16.21368336 267.14296582 11.09808911 273.07801526 5.8125 278.875 C5.34295898 279.39288086 4.87341797 279.91076172 4.38964844 280.44433594 C3.28161832 281.65001172 2.14384932 282.82825192 1 284 C0.67 284 0.34 284 0 284 C0 190.28 0 96.56 0 0 Z " fill="#DDC9F5" transform="translate(135,95)"/>
<path d="M0 0 C43.25443787 0 43.25443787 0 52.34741211 0.15258789 C54.02829414 0.17639359 55.70933847 0.19030289 57.39038086 0.19555664 C70.53990066 0.24385948 82.29941066 1.346959 92.25390625 11.01171875 C100.48431569 20.38370624 103.77768437 32.46214786 103.21875 44.8984375 C102.0694355 55.94006612 98.45201696 66.3894449 90 74 C78.16546984 83.23182334 63.80263704 84.62009671 49.31640625 84.390625 C48.05372925 84.38659668 46.79105225 84.38256836 45.4901123 84.37841797 C40.84742354 84.35774966 36.20494459 84.3019081 31.5625 84.25 C21.146875 84.1675 10.73125 84.085 0 84 C0 56.28 0 28.56 0 0 Z " fill="#5109BD" transform="translate(199,270)"/>
<path d="M0 0 C14.1075 -0.12375 14.1075 -0.12375 28.5 -0.25 C31.43455078 -0.28641602 34.36910156 -0.32283203 37.39257812 -0.36035156 C73.07446318 -0.61841842 73.07446318 -0.61841842 85.73046875 10.5234375 C94.4280074 19.67195963 95.37604933 31.30550663 95.2109375 43.2421875 C94.88043113 53.70006199 91.30749315 60.4543501 84.171875 67.91015625 C72.47983389 78.41960542 53.68561518 78.1698553 38.8671875 78.09765625 C37.87468994 78.09664917 36.88219238 78.09564209 35.85961914 78.09460449 C32.19806745 78.08942371 28.53653241 78.075463 24.875 78.0625 C16.66625 78.041875 8.4575 78.02125 0 78 C0 52.26 0 26.52 0 0 Z " fill="#5A0ACC" transform="translate(199,147)"/>
<path d="M0 0 C41.25 0 82.5 0 125 0 C125 0.33 125 0.66 125 1 C113.25528727 2.15921331 101.55395756 2.11861758 89.76494598 2.07516479 C86.23475036 2.06227313 82.70459276 2.05585455 79.17437744 2.05102539 C71.69956764 2.03967594 64.22478988 2.02038786 56.75 2 C48.04269904 1.97639583 39.33541524 1.95604841 30.6280899 1.94406128 C27.14581443 1.93756795 23.66359297 1.92506921 20.18133545 1.91235352 C18.06327359 1.90872386 15.94521124 1.90537178 13.82714844 1.90234375 C12.8558046 1.89717743 11.88446075 1.89201111 10.88368225 1.88668823 C10.00085068 1.88661774 9.1180191 1.88654724 8.20843506 1.88647461 C7.43940731 1.884254 6.67037956 1.88203339 5.87804794 1.87974548 C3.90861986 1.88354632 3.90861986 1.88354632 2 3 C2 95.4 2 187.8 2 283 C1.34 283.33 0.68 283.66 0 284 C0 190.28 0 96.56 0 0 Z " fill="#E8C7FE" transform="translate(135,95)"/>
<path d="M0 0 C7.05589126 -0.36848949 13.02576022 0.24901608 19.78515625 2.34375 C21.93459588 3.09469611 21.93459588 3.09469611 24 3 C24 3.66 24 4.32 24 5 C24.66 5 25.32 5 26 5 C26 5.66 26 6.32 26 7 C26.73605469 6.97679687 27.47210938 6.95359375 28.23046875 6.9296875 C29.20628906 6.91164063 30.18210938 6.89359375 31.1875 6.875 C32.15042969 6.85179687 33.11335938 6.82859375 34.10546875 6.8046875 C37.12812778 7.0086456 39.26769985 7.73125368 42 9 C42.33 8.34 42.66 7.68 43 7 C43 7.66 43 8.32 43 9 C44.98 9.33 46.96 9.66 49 10 C49 10.66 49 11.32 49 12 C49.78375 12.12375 50.5675 12.2475 51.375 12.375 C53.34820994 12.71520861 55.31998711 13.07202459 57.2734375 13.51171875 C68.59758455 16.03018047 78.6666989 15.68946222 89.0546875 9.84375 C91.52634816 8.77170441 93.10448457 8.98595361 95.75 9.375 C96.54921875 9.48585938 97.3484375 9.59671875 98.171875 9.7109375 C98.77515625 9.80632812 99.3784375 9.90171875 100 10 C94.91260765 12.7342296 89.39933104 14.09222153 83.875 15.6875 C82.78445313 16.02072266 81.69390625 16.35394531 80.5703125 16.69726562 C79.49265625 17.00728516 78.415 17.31730469 77.3046875 17.63671875 C76.33515137 17.92248779 75.36561523 18.20825684 74.36669922 18.50268555 C64.85961774 19.90703109 55.74360781 16.77611544 46.6796875 14.18359375 C45.32654967 13.80314939 43.97320296 13.42344724 42.61965942 13.04444885 C39.08968644 12.05392381 35.56260709 11.05346589 32.03607178 10.05078125 C28.42420689 9.02578567 24.80964571 8.01039096 21.1953125 6.99414062 C14.12756293 5.00538277 7.06284805 3.00610422 0 1 C0 0.67 0 0.34 0 0 Z " fill="#5C29A6" transform="translate(182,481)"/>
<path d="M0 0 C0.33 0 0.66 0 1 0 C1.33 6.93 1.66 13.86 2 21 C49.52 21 97.04 21 146 21 C146 21.33 146 21.66 146 22 C144.35 22 142.7 22 141 22 C141 22.66 141 23.32 141 24 C138.69 24.33 136.38 24.66 134 25 C134 24.34 134 23.68 134 23 C133.3154754 23.00092179 132.63095079 23.00184359 131.92568302 23.00279331 C115.29334828 23.02484806 98.66101815 23.04141132 82.02867222 23.05181217 C73.98549946 23.05697523 65.94233643 23.06401812 57.89916992 23.07543945 C50.8912704 23.08538598 43.88337792 23.09185335 36.87547153 23.09408849 C33.16256808 23.09539566 29.4496848 23.09848184 25.7367878 23.10573006 C21.59868589 23.11374332 17.46061939 23.11399116 13.32250977 23.11352539 C11.46243034 23.1189183 11.46243034 23.1189183 9.56477356 23.12442017 C7.88408783 23.12235817 7.88408783 23.12235817 6.16944885 23.12025452 C5.18958291 23.12117631 4.20971697 23.1220981 3.20015812 23.12304783 C1 23 1 23 0 22 C-0.08700342 20.36527118 -0.10701063 18.72685945 -0.09765625 17.08984375 C-0.09443359 16.10048828 -0.09121094 15.11113281 -0.08789062 14.09179688 C-0.07951172 13.05087891 -0.07113281 12.00996094 -0.0625 10.9375 C-0.05798828 9.89271484 -0.05347656 8.84792969 -0.04882812 7.77148438 C-0.03699913 5.1809334 -0.02051689 2.59049441 0 0 Z " fill="#4209A0" transform="translate(133,384)"/>
<path d="M0 0 C0.33 0 0.66 0 1 0 C1.63593367 9.09738447 1.63593367 9.09738447 -0.9375 12.75 C-1.618125 13.4925 -2.29875 14.235 -3 15 C-3.2165625 16.546875 -3.2165625 16.546875 -3.4375 18.125 C-3.623125 19.07375 -3.80875 20.0225 -4 21 C-6.5 22.625 -6.5 22.625 -9 24 C-10.023745 26.5199877 -10 28.24964677 -10 31 C-11.64453125 32.60546875 -11.64453125 32.60546875 -13.8125 34.1875 C-14.52019531 34.71730469 -15.22789062 35.24710938 -15.95703125 35.79296875 C-18 37 -18 37 -21 37 C-22.68236471 37.62599617 -24.3523962 38.28752268 -26 39 C-26.495 37.515 -26.495 37.515 -27 36 C-26.3709375 35.52691406 -25.741875 35.05382812 -25.09375 34.56640625 C-12.95865061 25.19094543 -4.87979895 14.63939684 0 0 Z " fill="#5518BA" transform="translate(354,202)"/>
<path d="M0 0 C-0.33 38.28 -0.66 76.56 -1 116 C-1.33 116 -1.66 116 -2 116 C-2.01030746 114.69200943 -2.02061493 113.38401886 -2.03123474 112.03639221 C-2.12911444 99.6923047 -2.23186186 87.34826595 -2.33933926 75.00425816 C-2.39443501 68.65853616 -2.44783318 62.31280947 -2.49731445 55.96704102 C-2.54515547 49.83971746 -2.59750449 43.71244729 -2.65294075 37.58518791 C-2.67327517 35.2509183 -2.69200246 32.91663409 -2.70907402 30.58233833 C-2.7333164 27.30557122 -2.76334244 24.02890319 -2.79467773 20.75219727 C-2.8004332 19.79337646 -2.80618866 18.83455566 -2.81211853 17.84667969 C-2.87365975 12.1616192 -3.28210613 6.64095445 -4 1 C-2 0 -2 0 0 0 Z " fill="#5B15C5" transform="translate(135,93)"/>
<path d="M0 0 C2.38307475 2.38307475 2.43195787 3.75404497 3 7 C3.33 7.66 3.66 8.32 4 9 C3.67 9.66 3.34 10.32 3 11 C3.66 11 4.32 11 5 11 C4.98839844 12.04800781 4.97679687 13.09601562 4.96484375 14.17578125 C4.95546345 15.55468572 4.9463635 16.93359211 4.9375 18.3125 C4.92912109 19.00279297 4.92074219 19.69308594 4.91210938 20.40429688 C4.89692094 23.5483025 4.99806673 25.99420019 6 29 C6.0845387 31.4410776 6.11605786 33.85259213 6.09765625 36.29296875 C6.0962413 36.99899734 6.09482635 37.70502594 6.09336853 38.43244934 C6.08777764 40.68417626 6.07522688 42.93580321 6.0625 45.1875 C6.05748382 46.71549335 6.05292112 48.24348827 6.04882812 49.77148438 C6.0378112 53.51436135 6.02055287 57.25716373 6 61 C5.67 61 5.34 61 5 61 C4.34545334 53.78509633 3.6933213 46.56997867 3.04424286 39.35458088 C2.74275193 36.00393876 2.44044013 32.65337498 2.13623047 29.30297852 C1.78664511 25.44826484 1.43991869 21.59330307 1.09375 17.73828125 C0.9843811 16.53915604 0.87501221 15.34003082 0.7623291 14.10456848 C0.66222534 12.98378403 0.56212158 11.86299957 0.45898438 10.70825195 C0.37015991 9.72452103 0.28133545 8.7407901 0.18981934 7.72724915 C0.00978384 5.14057041 -0.03469123 2.59185904 0 0 Z " fill="#853FE4" transform="translate(31,4)"/>
<path d="M0 0 C7.05589126 -0.36848949 13.02576022 0.24901608 19.78515625 2.34375 C21.93459588 3.09469611 21.93459588 3.09469611 24 3 C24 3.66 24 4.32 24 5 C24.66 5 25.32 5 26 5 C26 5.66 26 6.32 26 7 C26.73605469 6.97679687 27.47210938 6.95359375 28.23046875 6.9296875 C29.20628906 6.91164063 30.18210938 6.89359375 31.1875 6.875 C32.15042969 6.85179687 33.11335938 6.82859375 34.10546875 6.8046875 C37.12812778 7.0086456 39.26769985 7.73125368 42 9 C42.33 8.34 42.66 7.68 43 7 C43 7.66 43 8.32 43 9 C43.99 9.33 44.98 9.66 46 10 C45.67 10.99 45.34 11.98 45 13 C29.80603815 9.70073971 14.91972026 5.35099133 0 1 C0 0.67 0 0.34 0 0 Z " fill="#6531B2" transform="translate(182,481)"/>
<path d="M0 0 C4.95 0 9.9 0 15 0 C15.33 0.99 15.66 1.98 16 3 C18.19771531 4.09885766 19.68913369 4.22956019 22.125 4.4375 C26.57264994 4.88442755 30.69053306 5.82469084 35 7 C35 7.66 35 8.32 35 9 C36.03060547 8.83951172 36.03060547 8.83951172 37.08203125 8.67578125 C37.98308594 8.55589844 38.88414062 8.43601562 39.8125 8.3125 C41.15248047 8.12107422 41.15248047 8.12107422 42.51953125 7.92578125 C45 8 45 8 46.82421875 9.35546875 C48 11 48 11 48 13 C41.28984424 12.52864179 35.14388012 11.43895693 28.7109375 9.49609375 C27.88163727 9.2533522 27.05233704 9.01061066 26.19790649 8.76051331 C23.58774423 7.99445828 20.98140414 7.21623387 18.375 6.4375 C16.59008367 5.91129487 14.80492913 5.38589705 13.01953125 4.86132812 C8.6768823 3.58351977 4.3376129 2.29479558 0 1 C0 0.67 0 0.34 0 0 Z " fill="#7040B8" transform="translate(129,466)"/>
<path d="M0 0 C2.31364593 2.31364593 2.31217375 2.95391338 2.59765625 6.09765625 C2.67693359 6.89880859 2.75621094 7.69996094 2.83789062 8.52539062 C2.91201172 9.36263672 2.98613281 10.19988281 3.0625 11.0625 C3.08644429 16.46262488 3.08644429 16.46262488 5 21 C5.08847743 23.52094076 5.11527301 26.01430893 5.09765625 28.53515625 C5.0962413 29.28840683 5.09482635 30.04165741 5.09336853 30.81773376 C5.08775376 33.2326956 5.07519883 35.64756601 5.0625 38.0625 C5.0574869 39.69596221 5.05292366 41.32942586 5.04882812 42.96289062 C5.03777954 46.97529585 5.02050506 50.98763241 5 55 C4.67 55 4.34 55 4 55 C3.42455412 48.77493051 2.85510683 42.54935089 2.29101562 36.32324219 C2.09862087 34.20883674 1.9046377 32.09457516 1.70898438 29.98046875 C1.42672468 26.92745568 1.1503355 23.8739569 0.875 20.8203125 C0.78750488 19.88760529 0.70000977 18.95489807 0.60986328 17.993927 C0.07477724 11.97925571 -0.10277341 6.03742821 0 0 Z " fill="#884DD4" transform="translate(58,306)"/>
<path d="M0 0 C0.33 0 0.66 0 1 0 C1.33 2.64 1.66 5.28 2 8 C2.33 8 2.66 8 3 8 C3.01981934 8.56396484 3.03963867 9.12792969 3.06005859 9.70898438 C3.15631811 12.30639574 3.26558052 14.90311103 3.375 17.5 C3.4059375 18.386875 3.436875 19.27375 3.46875 20.1875 C3.50742187 21.0640625 3.54609375 21.940625 3.5859375 22.84375 C3.6173584 23.63974609 3.6487793 24.43574219 3.68115234 25.25585938 C3.95803873 28.20961256 3.95803873 28.20961256 5.01367188 31.82226562 C6.07346029 35.89014518 6.25885432 39.81082725 6.1953125 44 C6.1924826 44.7211499 6.18965271 45.4422998 6.18673706 46.18530273 C6.17566696 48.45704747 6.15058895 50.72837727 6.125 53 C6.1149531 54.55337967 6.10583027 56.1067656 6.09765625 57.66015625 C6.07577111 61.44026062 6.04133514 65.22006032 6 69 C5.67 69 5.34 69 5 69 C4.34239476 61.62821359 3.69007458 54.25597883 3.04424286 46.88315105 C2.74410104 43.45857322 2.44223475 40.03416679 2.13623047 36.61010742 C1.78339303 32.66110812 1.43841022 28.71144045 1.09375 24.76171875 C0.9843811 23.54981369 0.87501221 22.33790863 0.7623291 21.08927917 C0.15401284 14.03785947 -0.14155721 7.07724271 0 0 Z " fill="#A473E3" transform="translate(52,236)"/>
<path d="M0 0 C3.78917739 3.78917739 3.94314936 10.34832351 4.0546875 15.55078125 C4.02032375 17.01124083 3.96370983 18.4715196 3.875 19.9296875 C3.89193151 22.10767855 3.89193151 22.10767855 4.9921875 24.36328125 C6.19356623 27.50642328 6.19868269 29.95993757 6.125 33.3125 C6.10695313 34.38113281 6.08890625 35.44976562 6.0703125 36.55078125 C6.03550781 37.76314453 6.03550781 37.76314453 6 39 C5.34 39 4.68 39 4 39 C4 41.31 4 43.62 4 46 C3.67 46 3.34 46 3 46 C2.5672713 41.05661173 2.14025581 36.11277326 1.71826172 31.16845703 C1.57427898 29.49059109 1.4288037 27.81285246 1.28173828 26.13525391 C0.51735566 17.40465244 -0.21442731 8.77365066 0 0 Z " fill="#965CE0" transform="translate(48,190)"/>
<path d="M0 0 C3.17871909 5.93360896 3.28958513 11.72187412 3.60546875 18.33203125 C3.74374845 22.29534093 3.74374845 22.29534093 5 26 C5.14128517 27.77680673 5.22594863 29.55828673 5.28125 31.33984375 C5.31863281 32.40267578 5.35601562 33.46550781 5.39453125 34.56054688 C5.42933594 35.67494141 5.46414062 36.78933594 5.5 37.9375 C5.56884752 40.13424589 5.64158753 42.33087421 5.71875 44.52734375 C5.74904297 45.50437256 5.77933594 46.48140137 5.81054688 47.48803711 C5.90686937 50.12724944 5.90686937 50.12724944 7 53 C7.06740865 54.56118428 7.08514456 56.1250252 7.0625 57.6875 C7.05347656 58.49574219 7.04445313 59.30398438 7.03515625 60.13671875 C7.02355469 60.75160156 7.01195313 61.36648438 7 62 C6.34 61.67 5.68 61.34 5 61 C4.56967163 58.87680054 4.56967163 58.87680054 4.31396484 56.04052734 C4.1640358 54.45285049 4.1640358 54.45285049 4.01107788 52.83309937 C3.91203156 51.67903595 3.81298523 50.52497253 3.7109375 49.3359375 C3.60278717 48.15536774 3.49463684 46.97479797 3.38320923 45.75845337 C3.15535781 43.25196372 2.93205595 40.74505706 2.71289062 38.23779297 C2.37819238 34.41149555 2.03023109 30.58659372 1.6796875 26.76171875 C1.4601524 24.3281957 1.24137808 21.89460387 1.0234375 19.4609375 C0.92034271 18.31901947 0.81724792 17.17710144 0.71102905 16.00057983 C0.2455427 10.64545943 -0.12635812 5.3755254 0 0 Z " fill="#9465D3" transform="translate(65,388)"/>
<path d="M0 0 C0.33 0 0.66 0 1 0 C1.63593367 9.09738447 1.63593367 9.09738447 -0.9375 12.75 C-1.618125 13.4925 -2.29875 14.235 -3 15 C-3.2165625 16.546875 -3.2165625 16.546875 -3.4375 18.125 C-4 21 -4 21 -6.4375 22.75 C-7.283125 23.1625 -8.12875 23.575 -9 24 C-9.66 24.66 -10.32 25.32 -11 26 C-11.99 25.67 -12.98 25.34 -14 25 C-13.64808594 24.58492187 -13.29617188 24.16984375 -12.93359375 23.7421875 C-7.34897566 16.77235082 -2.82907181 8.48721543 0 0 Z " fill="#642EC0" transform="translate(354,202)"/>
<path d="M0 0 C0 3.69349436 -0.88153908 5.00493457 -3 8 C-4.65385233 9.34919532 -6.321702 10.68133728 -8 12 C-9.75758849 13.93957313 -11.36907572 15.94969519 -13 18 C-15.31 17.34 -17.62 16.68 -20 16 C-15.66664837 12.47669414 -11.17314091 9.2325217 -6.62109375 6 C-4.19411293 4.14811598 -2.09803305 2.21157366 0 0 Z " fill="#4E15AA" transform="translate(344,374)"/>
<path d="M0 0 C2.33161557 3.49742335 2.92153013 6.69290393 3.625 10.75 C3.75616211 11.49991211 3.88732422 12.24982422 4.02246094 13.02246094 C5.46405528 21.92290188 6.0615792 31.1551602 4 40 C3.67 40 3.34 40 3 40 C2.56862177 35.42884403 2.14152493 30.85731492 1.71826172 26.28540039 C1.57390892 24.73255821 1.42841965 23.17982122 1.28173828 21.62719727 C1.07019555 19.38585168 0.86284421 17.14415024 0.65625 14.90234375 C0.55781799 13.87378517 0.55781799 13.87378517 0.45739746 12.82444763 C0.06719123 8.535614 -0.05874274 4.30535339 0 0 Z " fill="#8746DE" transform="translate(37,69)"/>
<path d="M0 0 C0.33 0 0.66 0 1 0 C0.37752842 14.03837211 -0.70332961 28.0084169 -2 42 C-2.33 42 -2.66 42 -3 42 C-4.32915021 34.02509872 -4.08801359 26.05813281 -4 18 C-3.34 17.67 -2.68 17.34 -2 17 C-1.71303071 14.49419602 -1.53267239 12.07644381 -1.4375 9.5625 C-1.11775178 2.23550356 -1.11775178 2.23550356 0 0 Z " fill="#8559C6" transform="translate(447,238)"/>
<path d="M0 0 C0.66 0.33 1.32 0.66 2 1 C2 2.32 2 3.64 2 5 C1.67 5.33 1.34 5.66 1 6 C1 6.99 1 7.98 1 9 C3.475 9.99 3.475 9.99 6 11 C6 11.66 6 12.32 6 13 C0.27789404 11.13236819 -5.37661751 9.14710968 -11 7 C-8.84658594 4.65082102 -6.78332063 3.17556996 -3.9375 1.75 C-3.24527344 1.39421875 -2.55304688 1.0384375 -1.83984375 0.671875 C-1.23269531 0.45015625 -0.62554687 0.2284375 0 0 Z " fill="#622BBB" transform="translate(325,239)"/>
<path d="M0 0 C0.33 0 0.66 0 1 0 C-0.16602208 16.35055395 -1.44897882 32.68127715 -3 49 C-3.33 49 -3.66 49 -4 49 C-4.11522956 36.61922367 -3.89587605 24.3502912 -3 12 C-2.34 12 -1.68 12 -1 12 C-1.020625 10.7625 -1.04125 9.525 -1.0625 8.25 C-1.06766681 5.3359175 -0.93015558 2.79046673 0 0 Z " fill="#9162D2" transform="translate(468,4)"/>
<path d="M0 0 C2.65613616 1.32806808 2.93232069 2.22403378 4 5 C5.19168396 12.15855543 5.14864478 19.25681664 5.125 26.5 C5.12886719 27.68464844 5.13273437 28.86929687 5.13671875 30.08984375 C5.1299571 36.15504788 4.93488266 42.00487948 4 48 C3.34 48 2.68 48 2 48 C2.0721875 47.23558594 2.144375 46.47117187 2.21875 45.68359375 C3.3610491 32.49955827 3.35610809 20.03952952 1 7 C0.78395234 5.56363917 0.57395615 4.12632781 0.375 2.6875 C0.189375 1.3571875 0.189375 1.3571875 0 0 Z " fill="#7752B3" transform="translate(361,288)"/>
<path d="M0 0 C0.99 0.66 1.98 1.32 3 2 C-2.01417745 4.00567098 -7.07715159 5.6949057 -12.25 7.25 C-13.43078125 7.60578125 -14.6115625 7.9615625 -15.828125 8.328125 C-18.79423652 8.95641463 -20.22416907 9.07185551 -23 8 C-22.67 7.34 -22.34 6.68 -22 6 C-18.39664558 5.13969913 -14.77286306 4.52243048 -11.125 3.87890625 C-10.09375 3.58886719 -9.0625 3.29882812 -8 3 C-7.67 2.01 -7.34 1.02 -7 0 C-4.28569464 -1.35715268 -2.88661718 -0.77445827 0 0 Z " fill="#5B2DA1" transform="translate(419,450)"/>
<path d="M0 0 C1.85772162 0.08984301 3.71247985 0.24611861 5.5625 0.4375 C7.08037109 0.59025391 7.08037109 0.59025391 8.62890625 0.74609375 C9.80259766 0.87177734 9.80259766 0.87177734 11 1 C6.38199721 3.45846207 1.50744589 4.74369776 -3.5 6.1875 C-4.92505859 6.61579102 -4.92505859 6.61579102 -6.37890625 7.05273438 C-7.29542969 7.31763672 -8.21195312 7.58253906 -9.15625 7.85546875 C-9.98962891 8.09934326 -10.82300781 8.34321777 -11.68164062 8.59448242 C-14.15106323 9.02642334 -15.64573697 8.79276895 -18 8 C-17.67 7.34 -17.34 6.68 -17 6 C-14.92578125 5.47265625 -14.92578125 5.47265625 -12.3125 5.0625 C-7.87276821 4.26105844 -3.31320198 3.31320198 0 0 Z " fill="#6536AB" transform="translate(271,490)"/>
<path d="M0 0 C2.475 0.495 2.475 0.495 5 1 C-0.05422607 3.77279385 -5.64047148 5.05132209 -11.15478516 6.6237793 C-13.12778307 7.1882963 -15.09704942 7.76472382 -17.06640625 8.34179688 C-18.30519531 8.69693359 -19.54398437 9.05207031 -20.8203125 9.41796875 C-21.95742676 9.74563232 -23.09454102 10.0732959 -24.26611328 10.41088867 C-27 11 -27 11 -29 10 C-29 9.34 -29 8.68 -29 8 C-28.32453125 7.87882812 -27.6490625 7.75765625 -26.953125 7.6328125 C-25.61507813 7.38144531 -25.61507813 7.38144531 -24.25 7.125 C-23.36828125 6.96257812 -22.4865625 6.80015625 -21.578125 6.6328125 C-19.03543383 6.1108259 -19.03543383 6.1108259 -17.015625 5 C-14.53508251 3.76934326 -12.22484909 3.3466085 -9.5 2.875 C-8.5615625 2.70742188 -7.623125 2.53984375 -6.65625 2.3671875 C-4 2 -4 2 0 2 C0 1.34 0 0.68 0 0 Z " fill="#6E46AC" transform="translate(381,461)"/>
<path d="M0 0 C0.99 0 1.98 0 3 0 C1.16272687 6.53252668 -3.89225882 11.32241008 -9.0625 15.4375 C-12.12083383 17.06427331 -14.56816938 17.67315899 -18 18 C-16.75 16 -16.75 16 -15 14 C-13.68 14 -12.36 14 -11 14 C-11 13.34 -11 12.68 -11 12 C-10.01 12 -9.02 12 -8 12 C-8 11.34 -8 10.68 -8 10 C-7.01 10 -6.02 10 -5 10 C-4.34 8.68 -3.68 7.36 -3 6 C-2.34 6 -1.68 6 -1 6 C-0.67 4.02 -0.34 2.04 0 0 Z " fill="#7744C4" transform="translate(288,203)"/>
<path d="M0 0 C0.66 0.33 1.32 0.66 2 1 C1.49122826 11.34863375 0.96797688 21.68177841 0 32 C-0.33 32 -0.66 32 -1 32 C-2.36035701 23.83785794 -2.04811951 16.17249941 -1 8 C-0.90460938 7.22527344 -0.80921875 6.45054687 -0.7109375 5.65234375 C-0.47826451 3.76769254 -0.23975175 1.88376378 0 0 Z " fill="#7445BF" transform="translate(455,133)"/>
<path d="M0 0 C0.66 0.33 1.32 0.66 2 1 C-3.26571414 7.0614973 -8.61662147 13.04288271 -14 19 C-14.33 18.01 -14.66 17.02 -15 16 C-14.525625 15.566875 -14.05125 15.13375 -13.5625 14.6875 C-11.76313043 12.97690387 -11.76313043 12.97690387 -11 10 C-9.2578125 8.2109375 -9.2578125 8.2109375 -7.125 6.375 C-6.42632812 5.76398438 -5.72765625 5.15296875 -5.0078125 4.5234375 C-3 3 -3 3 0 2 C0 1.34 0 0.68 0 0 Z " fill="#E0D4ED" transform="translate(310,178)"/>
<path d="M0 0 C0.33 0 0.66 0 1 0 C1.13444393 7.63062687 0.75657818 15.09615815 0 22.6875 C-0.09539062 23.68716797 -0.19078125 24.68683594 -0.2890625 25.71679688 C-0.52142804 28.14501674 -0.75845635 30.57267899 -1 33 C-1.33 33 -1.66 33 -2 33 C-2.05872928 29.1875662 -2.09383916 25.37525094 -2.125 21.5625 C-2.14175781 20.49322266 -2.15851563 19.42394531 -2.17578125 18.32226562 C-2.21520778 11.87602841 -1.66458433 6.23236102 0 0 Z " fill="#8762BE" transform="translate(434,382)"/>
<path d="M0 0 C0.33 0 0.66 0 1 0 C2.95166306 7.30721089 3.24317822 14.0218202 3.125 21.5625 C3.11597656 22.66658203 3.10695312 23.77066406 3.09765625 24.90820312 C3.07430128 27.6057017 3.04155054 30.30273077 3 33 C2.67 33 2.34 33 2 33 C1.65922686 29.37566012 1.3287782 25.75044609 1 22.125 C0.90460937 21.11179687 0.80921875 20.09859375 0.7109375 19.0546875 C0.13904121 12.68212887 -0.12770164 6.39749765 0 0 Z " fill="#A575E3" transform="translate(60,328)"/>
<path d="M0 0 C8.83840793 0.12659178 15.79939315 0.26890475 23 6 C20.26550363 7.36724819 19.11398588 6.64208017 16.2109375 5.78515625 C15.26992187 5.51123047 14.32890625 5.23730469 13.359375 4.95507812 C12.37453125 4.66052734 11.3896875 4.36597656 10.375 4.0625 C8.88613281 3.62647461 8.88613281 3.62647461 7.3671875 3.18164062 C4.90948137 2.46087104 2.45395896 1.733407 0 1 C0 0.67 0 0.34 0 0 Z " fill="#6E3EBB" transform="translate(72,450)"/>
<path d="M0 0 C2.44687039 2.44687039 2.96036711 4.1119676 3.11352539 7.54370117 C3.10828857 8.53345947 3.10305176 9.52321777 3.09765625 10.54296875 C3.09443359 11.61611328 3.09121094 12.68925781 3.08789062 13.79492188 C3.07951172 14.91447266 3.07113281 16.03402344 3.0625 17.1875 C3.05798828 18.31865234 3.05347656 19.44980469 3.04882812 20.61523438 C3.03703498 23.41020927 3.0205765 26.2050782 3 29 C2.67 29 2.34 29 2 29 C1.66134102 25.47965794 1.33003905 21.95865982 1 18.4375 C0.90460937 17.44685547 0.80921875 16.45621094 0.7109375 15.43554688 C0.22991879 10.26459572 -0.11653634 5.19315048 0 0 Z " fill="#975FE2" transform="translate(34,36)"/>
<path d="M0 0 C-3.80773693 2.53849129 -7.56055664 3.47302797 -11.9375 4.6875 C-12.74896484 4.92533203 -13.56042969 5.16316406 -14.39648438 5.40820312 C-15.18216797 5.62798828 -15.96785156 5.84777344 -16.77734375 6.07421875 C-17.49140381 6.27619873 -18.20546387 6.47817871 -18.94116211 6.6862793 C-21.25122486 7.03828103 -22.79230597 6.70940527 -25 6 C-21.5980513 3.90649311 -18.94727588 3.82057837 -15 4 C-15 3.34 -15 2.68 -15 2 C-9.87080814 -0.10428384 -5.4389165 -0.21755666 0 0 Z " fill="#7D57BA" transform="translate(336,476)"/>
<path d="M0 0 C5.29351859 3.52901239 7.80646103 8.02667026 9.60546875 14.015625 C10.20066037 17.00926208 10.05848088 19.95899437 10 23 C7.62377301 18.7959061 6.92855213 14.37081711 5.9765625 9.6796875 C5.27432095 6.8673435 5.27432095 6.8673435 2.9453125 5.796875 C2.30335938 5.53390625 1.66140625 5.2709375 1 5 C0.25 2.375 0.25 2.375 0 0 Z " fill="#5A1CB8" transform="translate(283,157)"/>
<path d="M0 0 C1.29296875 2.11328125 1.29296875 2.11328125 2 4 C-0.60607392 3.38221953 -3.20965697 2.75612789 -5.8125 2.125 C-6.55048828 1.95097656 -7.28847656 1.77695312 -8.04882812 1.59765625 C-11.49717037 0.75507489 -14.01928362 -0.01285575 -17 -2 C-10.96200134 -3.44386924 -5.60345089 -2.83757933 0 0 Z " fill="#6735B8" transform="translate(121,461)"/>
<path d="M0 0 C6.81598387 -0.33278764 11.92122066 -0.24201565 18 3 C18 3.66 18 4.32 18 5 C11.69632197 4.41632611 6.01339937 2.95928381 0 1 C0 0.67 0 0.34 0 0 Z " fill="#7748BE" transform="translate(182,481)"/>
<path d="M0 0 C0.70734241 1.31220766 1.37823346 2.64514628 2 4 C0.3954444 3.85851011 -1.20863767 3.71164314 -2.8125 3.5625 C-3.70582031 3.48128906 -4.59914062 3.40007812 -5.51953125 3.31640625 C-8 3 -8 3 -11 2 C-11 1.34 -11 0.68 -11 0 C-2.9085963 -1.40043526 -2.9085963 -1.40043526 0 0 Z " fill="#470BA6" transform="translate(175,475)"/>
<path d="M0 0 C0.66 0.33 1.32 0.66 2 1 C-1.625 4 -1.625 4 -5 4 C-5 4.99 -5 5.98 -5 7 C-9.95 8.485 -9.95 8.485 -15 10 C-12.62444839 5.24889677 -11.22971938 4.79599216 -6.5 2.6875 C-5.3346875 2.15511719 -4.169375 1.62273437 -2.96875 1.07421875 C-1.9890625 0.71972656 -1.009375 0.36523438 0 0 Z " fill="#7144B4" transform="translate(322,390)"/>
<path d="M0 0 C0.66 0.99 1.32 1.98 2 3 C1.34 3 0.68 3 0 3 C-0.1546875 4.6396875 -0.1546875 4.6396875 -0.3125 6.3125 C-0.99288632 9.9618448 -1.23580631 10.81168 -4 13 C-4.33 13.66 -4.66 14.32 -5 15 C-5.99 15 -6.98 15 -8 15 C-8.33 15.99 -8.66 16.98 -9 18 C-9.66 17.67 -10.32 17.34 -11 17 C-10.37351562 16.10796875 -9.74703125 15.2159375 -9.1015625 14.296875 C-8.27590274 13.11468035 -7.45038961 11.93238328 -6.625 10.75 C-6.2125 10.16347656 -5.8 9.57695312 -5.375 8.97265625 C-3.35295912 6.07004918 -1.45533455 3.23052285 0 0 Z " fill="#6B3CB2" transform="translate(356,356)"/>
<path d="M0 0 C-0.66 0 -1.32 0 -2 0 C-2.33 0.99 -2.66 1.98 -3 3 C-5.31565945 4.62915864 -6.52482741 5.04877599 -9.359375 4.7578125 C-10.54273438 4.44457031 -10.54273438 4.44457031 -11.75 4.125 C-12.94882812 3.81949219 -12.94882812 3.81949219 -14.171875 3.5078125 C-14.77515625 3.34023438 -15.3784375 3.17265625 -16 3 C-16 2.67 -16 2.34 -16 2 C-14.02 2 -12.04 2 -10 2 C-10 1.34 -10 0.68 -10 0 C-6.33694766 -0.74926071 -3.57644848 -1.2380014 0 0 Z " fill="#5D2CB0" transform="translate(294,402)"/>
<path d="M0 0 C3.58102841 3.38208239 6.56773474 6.69676146 9 11 C8.67 11.99 8.34 12.98 8 14 C7.34 14 6.68 14 6 14 C6 12.35 6 10.7 6 9 C5.01 9 4.02 9 3 9 C2.67 8.01 2.34 7.02 2 6 C1.34 5.67 0.68 5.34 0 5 C0 3.35 0 1.7 0 0 Z " fill="#6A3BB9" transform="translate(289,280)"/>
<path d="M0 0 C0.99 0.33 1.98 0.66 3 1 C3.09507063 7.43311296 3.15316726 13.65758005 2 20 C1.67 20 1.34 20 1 20 C0.67 13.4 0.34 6.8 0 0 Z " fill="#8445DA" transform="translate(46,168)"/>
<path d="M0 0 C0 0.99 0 1.98 0 3 C1.32 3.33 2.64 3.66 4 4 C2.68 4 1.36 4 0 4 C0 4.66 0 5.32 0 6 C-2.97 5.505 -2.97 5.505 -6 5 C-6 5.66 -6 6.32 -6 7 C-7.32 7 -8.64 7 -10 7 C-9.67 6.01 -9.34 5.02 -9 4 C-7.35 4 -5.7 4 -4 4 C-4 3.01 -4 2.02 -4 1 C-2 0 -2 0 0 0 Z " fill="#400598" transform="translate(387,456)"/>
<path d="M0 0 C0.99 0.495 0.99 0.495 2 1 C2 2.32 2 3.64 2 5 C2.99 4.67 3.98 4.34 5 4 C6.04449911 7.13349732 5.93423645 7.98968256 5 11 C5.66 11.33 6.32 11.66 7 12 C6.34 12 5.68 12 5 12 C5.33 13.65 5.66 15.3 6 17 C5.34 17.33 4.68 17.66 4 18 C3.896875 16.783125 3.79375 15.56625 3.6875 14.3125 C3.23475247 10.53072651 2.01400004 8.23991311 0 5 C-0.1875 2.1875 -0.1875 2.1875 0 0 Z " fill="#4909AE" transform="translate(361,283)"/>
<path d="M0 0 C2.66270106 3.9940516 3.1235689 6.63402862 3.09765625 11.32421875 C3.09443359 12.35224609 3.09121094 13.38027344 3.08789062 14.43945312 C3.07951172 15.51130859 3.07113281 16.58316406 3.0625 17.6875 C3.05798828 18.77095703 3.05347656 19.85441406 3.04882812 20.97070312 C3.03703743 23.64719085 3.02058063 26.32356777 3 29 C2.67 29 2.34 29 2 29 C1.66134102 25.47965794 1.33003905 21.95865982 1 18.4375 C0.90460937 17.44685547 0.80921875 16.45621094 0.7109375 15.43554688 C0.22991879 10.26459572 -0.11653634 5.19315048 0 0 Z " fill="#9C64DD" transform="translate(41,114)"/>
<path d="M0 0 C0.33 0 0.66 0 1 0 C1.39458375 3.24793427 1.76221514 6.49837271 2.125 9.75 C2.23714844 10.67039062 2.34929688 11.59078125 2.46484375 12.5390625 C2.56152344 13.42851563 2.65820312 14.31796875 2.7578125 15.234375 C2.8520752 16.05131836 2.94633789 16.86826172 3.04345703 17.70996094 C2.99400057 20.31614982 2.32265551 21.782214 1 24 C0.01956036 21.05868109 -0.11621202 19.17498335 -0.09765625 16.11328125 C-0.09443359 15.17548828 -0.09121094 14.23769531 -0.08789062 13.27148438 C-0.07532227 11.80678711 -0.07532227 11.80678711 -0.0625 10.3125 C-0.05798828 9.32443359 -0.05347656 8.33636719 -0.04882812 7.31835938 C-0.03704303 4.87884526 -0.02059011 2.43945311 0 0 Z " fill="#6C1AD9" transform="translate(37,48)"/>
<path d="M0 0 C0.33 0 0.66 0 1 0 C0.54736337 8.82641419 -0.14520646 17.33829426 -2 26 C-2.33 26 -2.66 26 -3 26 C-3 21.38 -3 16.76 -3 12 C-2.34 12 -1.68 12 -1 12 C-1.020625 10.7625 -1.04125 9.525 -1.0625 8.25 C-1.06766681 5.3359175 -0.93015558 2.79046673 0 0 Z " fill="#8049CB" transform="translate(468,4)"/>
<path d="M0 0 C3.44358802 3.44358802 3.52213829 8.28792063 4 13 C3.88815644 16.37767547 3.53540746 19.66455626 3 23 C2.67 23 2.34 23 2 23 C0.64290496 15.26940505 -0.31918373 7.85546636 0 0 Z " fill="#7C3CD2" transform="translate(48,190)"/>
<path d="M0 0 C0.66 0 1.32 0 2 0 C2.36368892 1.60203467 2.71561952 3.20674203 3.0625 4.8125 C3.25972656 5.70582031 3.45695312 6.59914063 3.66015625 7.51953125 C4 10 4 10 3 13 C2.34 13 1.68 13 1 13 C-0.00496852 9.98509443 -0.10335303 7.95818308 -0.0625 4.8125 C-0.05347656 3.91144531 -0.04445312 3.01039062 -0.03515625 2.08203125 C-0.02355469 1.39496094 -0.01195312 0.70789063 0 0 Z " fill="#6817D8" transform="translate(41,104)"/>
<path d="M0 0 C1.9375 0.6875 1.9375 0.6875 4 2 C4.75 4.625 4.75 4.625 5 7 C5.99 7.33 6.98 7.66 8 8 C8.33 10.97 8.66 13.94 9 17 C7.14889683 14.22334525 5.53814981 11.42600358 3.9375 8.5 C3.41027344 7.5409375 2.88304687 6.581875 2.33984375 5.59375 C1 3 1 3 0 0 Z " fill="#784ABF" transform="translate(352,270)"/>
<path d="M0 0 C0.33 0 0.66 0 1 0 C1.08153933 1.58246707 1.13943557 3.16616273 1.1875 4.75 C1.22230469 5.63171875 1.25710938 6.5134375 1.29296875 7.421875 C0.94355103 10.49675097 0.17867997 11.82639854 -2 14 C-2.99 14 -3.98 14 -5 14 C-3.46527032 9.27775484 -1.76054874 4.64144669 0 0 Z " fill="#642DBC" transform="translate(354,202)"/>
<path d="M0 0 C0.99 0.66 1.98 1.32 3 2 C-0.50776784 3.60355101 -3.14354879 4.22036864 -7 4 C-7 2.68 -7 1.36 -7 0 C-4.28569464 -1.35715268 -2.88661718 -0.77445827 0 0 Z " fill="#4A1499" transform="translate(419,450)"/>
<path d="M0 0 C0 3.68553144 -0.8522582 5.03759752 -3 8 C-5.6875 9.8125 -5.6875 9.8125 -8 11 C-8.66 10.34 -9.32 9.68 -10 9 C-6.7 6.03 -3.4 3.06 0 0 Z " fill="#6638B0" transform="translate(344,374)"/>
<path d="M0 0 C0 0.33 0 0.66 0 1 C-1.65 1 -3.3 1 -5 1 C-5 1.66 -5 2.32 -5 3 C-7.31 3.33 -9.62 3.66 -12 4 C-12 3.34 -12 2.68 -12 2 C-13.65 2 -15.3 2 -17 2 C-17 1.67 -17 1.34 -17 1 C-11.27959989 0.1679418 -5.77759884 -0.12036664 0 0 Z " fill="#4305A8" transform="translate(279,405)"/>
<path d="M0 0 C0.33 0 0.66 0 1 0 C1.2494783 7.29031024 0.72330907 13.90673679 -1 21 C-1.33 21 -1.66 21 -2 21 C-2.33 17.04 -2.66 13.08 -3 9 C-2.34 8.67 -1.68 8.34 -1 8 C-0.53476937 6.10466658 -0.53476937 6.10466658 -0.375 3.9375 C-0.25125 2.638125 -0.1275 1.33875 0 0 Z " fill="#7342BB" transform="translate(443,280)"/>
<path d="M0 0 C0.99 0.66 1.98 1.32 3 2 C2.34 3.65 1.68 5.3 1 7 C-0.65 7 -2.3 7 -4 7 C-4 6.34 -4 5.68 -4 5 C-4.99 5.33 -5.98 5.66 -7 6 C-7 5.34 -7 4.68 -7 4 C-6.030625 3.525625 -5.06125 3.05125 -4.0625 2.5625 C-1.19522563 1.29806053 -1.19522563 1.29806053 0 0 Z " fill="#4406A4" transform="translate(324,390)"/>
<path d="M0 0 C1.32 1.65 2.64 3.3 4 5 C3.34 5 2.68 5 2 5 C2.14308594 6.44632813 2.14308594 6.44632813 2.2890625 7.921875 C2.39992187 9.18515625 2.51078125 10.4484375 2.625 11.75 C2.74101563 13.00296875 2.85703125 14.2559375 2.9765625 15.546875 C3 19 3 19 1 23 C0.67 15.41 0.34 7.82 0 0 Z " fill="#6615D4" transform="translate(43,123)"/>
<path d="M0 0 C0.99 0 1.98 0 3 0 C1.64978174 4.41889613 -0.26115668 6.34345343 -4 9 C-4.33 7.68 -4.66 6.36 -5 5 C-4.01 5 -3.02 5 -2 5 C-1.7834375 4.0409375 -1.7834375 4.0409375 -1.5625 3.0625 C-1 1 -1 1 0 0 Z " fill="#6635B5" transform="translate(291,336)"/>
<path d="M0 0 C2.65769761 1.3288488 2.98178498 2.20666677 4 5 C4.13958857 7.62426505 4.18931369 10.13292747 4.125 12.75 C4.11597656 13.44738281 4.10695313 14.14476562 4.09765625 14.86328125 C4.07419888 16.57566958 4.03833104 18.28788004 4 20 C3.67 20 3.34 20 3 20 C0.88838269 6.3667426 0.88838269 6.3667426 0 0 Z " fill="#8F69CA" transform="translate(361,288)"/>
<path d="M0 0 C0.33 0 0.66 0 1 0 C0.67 6.93 0.34 13.86 0 21 C-0.33 21 -0.66 21 -1 21 C-1.22155127 18.06294869 -1.42774197 15.12619637 -1.625 12.1875 C-1.68945312 11.35412109 -1.75390625 10.52074219 -1.8203125 9.66210938 C-1.871875 8.85966797 -1.9234375 8.05722656 -1.9765625 7.23046875 C-2.02893066 6.49207764 -2.08129883 5.75368652 -2.13525391 4.99291992 C-2 3 -2 3 0 0 Z " fill="#490AA5" transform="translate(446,235)"/>
<path d="M0 0 C6.00333124 -0.6319296 10.63404795 1.62455877 16 4 C15.01 4.66 14.02 5.32 13 6 C13 5.34 13 4.68 13 4 C11.7315625 4.0928125 11.7315625 4.0928125 10.4375 4.1875 C6.26380157 3.95984372 3.74567053 2.79792186 0 1 C0 0.67 0 0.34 0 0 Z " fill="#5D20BC" transform="translate(262,149)"/>
<path d="M0 0 C0.99 0.33 1.98 0.66 3 1 C0.36 3.97 -2.28 6.94 -5 10 C-5.33 8.68 -5.66 7.36 -6 6 C-5.34 6 -4.68 6 -4 6 C-3.67 4.68 -3.34 3.36 -3 2 C-2.34 2 -1.68 2 -1 2 C-0.67 1.34 -0.34 0.68 0 0 Z " fill="#E3D8F1" transform="translate(268,225)"/>
<path d="M0 0 C0.66 0 1.32 0 2 0 C1.67 1.65 1.34 3.3 1 5 C1.66 5 2.32 5 3 5 C2.67 5.99 2.34 6.98 2 8 C1.34 8 0.68 8 0 8 C-0.66 8.99 -1.32 9.98 -2 11 C-2.25 3.375 -2.25 3.375 0 0 Z " fill="#490CA8" transform="translate(362,344)"/>
<path d="M0 0 C5.82271337 -0.59720137 9.9209404 1.471757 15 4 C15 4.66 15 5.32 15 6 C10 4.33333333 5 2.66666667 0 1 C0 0.67 0 0.34 0 0 Z " fill="#6F44BB" transform="translate(316,246)"/>
<path d="M0 0 C2.64 0.33 5.28 0.66 8 1 C8 1.66 8 2.32 8 3 C8.66 3 9.32 3 10 3 C10 3.66 10 4.32 10 5 C7.36 4.67 4.72 4.34 2 4 C2 3.01 2 2.02 2 1 C1.34 0.67 0.68 0.34 0 0 Z " fill="#632EB4" transform="translate(198,483)"/>
<path d="M0 0 C0.33 0 0.66 0 1 0 C1 4.95 1 9.9 1 15 C-1.31 15 -3.62 15 -6 15 C-2.25 12 -2.25 12 0 12 C0 8.04 0 4.08 0 0 Z " fill="#400D92" transform="translate(428,435)"/>
<path d="M0 0 C0.66 0 1.32 0 2 0 C0.33248852 3.94139078 -2.22710649 6.7892812 -5 10 C-5.33 8.68 -5.66 7.36 -6 6 C-5.01 5.67 -4.02 5.34 -3 5 C-1.8499169 3.03327085 -1.8499169 3.03327085 -1 1 C-0.67 0.67 -0.34 0.34 0 0 Z " fill="#E0D5F0" transform="translate(195,308)"/>
<path d="M0 0 C2.97 0.495 2.97 0.495 6 1 C6 1.99 6 2.98 6 4 C6.33 4.99 6.66 5.98 7 7 C3.62496331 5.8141763 1.35277269 4.72426311 -1 2 C-0.67 1.34 -0.34 0.68 0 0 Z " fill="#6C35BE" transform="translate(332,250)"/>
<path d="M0 0 C0.66 0.66 1.32 1.32 2 2 C1.04882866 3.1725131 0.08882991 4.33787015 -0.875 5.5 C-1.40867188 6.1496875 -1.94234375 6.799375 -2.4921875 7.46875 C-2.98976562 7.9740625 -3.48734375 8.479375 -4 9 C-4.66 9 -5.32 9 -6 9 C-4.68775452 5.06326356 -3.08089673 2.77280706 0 0 Z " fill="#DFD4ED" transform="translate(246,250)"/>
<path d="M0 0 C-1.17255709 3.33727786 -2.18868404 5.77437487 -5 8 C-5.66 8 -6.32 8 -7 8 C-4.18918919 0 -4.18918919 0 0 0 Z " fill="#DFD4EB" transform="translate(327,160)"/>
<path d="M0 0 C-0.33 3.63 -0.66 7.26 -1 11 C-1.66 10.67 -2.32 10.34 -3 10 C-3.4140625 7.93359375 -3.4140625 7.93359375 -3.625 5.4375 C-3.69976562 4.61121094 -3.77453125 3.78492187 -3.8515625 2.93359375 C-3.90054688 2.29550781 -3.94953125 1.65742187 -4 1 C-2 0 -2 0 0 0 Z " fill="#6012D6" transform="translate(135,93)"/>
<path d="M0 0 C1.95803507 -0.05389087 3.91648909 -0.09274217 5.875 -0.125 C7.51082031 -0.15980469 7.51082031 -0.15980469 9.1796875 -0.1953125 C12 0 12 0 14 2 C8.51053913 3.12029814 5.16569441 2.79217969 0 1 C0 0.67 0 0.34 0 0 Z " fill="#8056C4" transform="translate(207,488)"/>
<path d="M0 0 C0.99 0.33 1.98 0.66 3 1 C3 1.99 3 2.98 3 4 C-1.455 4.495 -1.455 4.495 -6 5 C-5.67 4.34 -5.34 3.68 -5 3 C-3.68 3 -2.36 3 -1 3 C-0.67 2.01 -0.34 1.02 0 0 Z " fill="#450E9C" transform="translate(349,468)"/>
<path d="M0 0 C0.99 0.66 1.98 1.32 3 2 C3 2.66 3 3.32 3 4 C3.66 4.33 4.32 4.66 5 5 C5 5.66 5 6.32 5 7 C0.32307692 5.52307692 0.32307692 5.52307692 -1.3125 2.875 C-1.539375 2.25625 -1.76625 1.6375 -2 1 C-1.34 0.67 -0.68 0.34 0 0 Z " fill="#4D08B3" transform="translate(338,251)"/>
<path d="M0 0 C1.32 1.32 2.64 2.64 4 4 C2.68 4 1.36 4 0 4 C0 2.68 0 1.36 0 0 Z M-4 2 C-2.68 2.66 -1.36 3.32 0 4 C-0.33 4.66 -0.66 5.32 -1 6 C-3.475 5.01 -3.475 5.01 -6 4 C-5.34 3.34 -4.68 2.68 -4 2 Z " fill="#D6C2F2" transform="translate(334,121)"/>
<path d="M0 0 C1.32 0 2.64 0 4 0 C4 2.31 4 4.62 4 7 C3.01 7.33 2.02 7.66 1 8 C1.33 6.02 1.66 4.04 2 2 C1.34 2 0.68 2 0 2 C0 1.34 0 0.68 0 0 Z " fill="#4D06BB" transform="translate(129,400)"/>
<path d="M0 0 C0.99 0.33 1.98 0.66 3 1 C2 4 2 4 0.1875 5.0625 C-0.8953125 5.5265625 -0.8953125 5.5265625 -2 6 C-3.11375 6.556875 -3.11375 6.556875 -4.25 7.125 C-4.8275 7.41375 -5.405 7.7025 -6 8 C-4.26440562 4.942048 -2.61527381 2.36620011 0 0 Z " fill="#4404A6" transform="translate(348,371)"/>
<path d="M0 0 C0.99 0 1.98 0 3 0 C3 4.29 3 8.58 3 13 C2.67 13 2.34 13 2 13 C1.66127487 11.58461283 1.32925376 10.16762037 1 8.75 C0.814375 7.96109375 0.62875 7.1721875 0.4375 6.359375 C0 4 0 4 0 0 Z " fill="#976FDB" transform="translate(354,151)"/>
<path d="M0 0 C2.31 0 4.62 0 7 0 C7.66 1.32 8.32 2.64 9 4 C4.545 3.01 4.545 3.01 0 2 C0 1.34 0 0.68 0 0 Z " fill="#7241BA" transform="translate(114,461)"/>
<path d="M0 0 C1 4 1 4 0 6 C-0.99 6 -1.98 6 -3 6 C-3.33 6.99 -3.66 7.98 -4 9 C-4.66 8.67 -5.32 8.34 -6 8 C-4.02 5.36 -2.04 2.72 0 0 Z " fill="#724BB2" transform="translate(351,365)"/>
<path d="M0 0 C2.15473199 1.5801368 4.10646634 3.10646634 6 5 C5.01 6.485 5.01 6.485 4 8 C3.34 8 2.68 8 2 8 C0.74335022 5.09399739 0 3.20395416 0 0 Z " fill="#4906B5" transform="translate(355,269)"/>
<path d="M0 0 C2.475 0.495 2.475 0.495 5 1 C5.66 3.31 6.32 5.62 7 8 C4.35247996 5.42215154 2.05567935 3.08351902 0 0 Z " fill="#7548C2" transform="translate(345,262)"/>
<path d="M0 0 C0.66 0.33 1.32 0.66 2 1 C1.8125 2.875 1.8125 2.875 1 5 C-1.5625 6.25 -1.5625 6.25 -4 7 C-4.33 6.01 -4.66 5.02 -5 4 C-3.35 2.68 -1.7 1.36 0 0 Z " fill="#7343C5" transform="translate(332,234)"/>
<path d="M0 0 C1.32 0.33 2.64 0.66 4 1 C4.33 4.3 4.66 7.6 5 11 C2.77174356 8.77174356 2.30760631 7.34238372 1.375 4.375 C1.11460937 3.55773437 0.85421875 2.74046875 0.5859375 1.8984375 C0.39257812 1.27195313 0.19921875 0.64546875 0 0 Z " fill="#9871D7" transform="translate(349,140)"/>
<path d="M0 0 C4.41889613 1.35021826 6.34345343 3.26115668 9 7 C6 7 6 7 4.39453125 5.46875 C3.87246094 4.8190625 3.35039062 4.169375 2.8125 3.5 C2.28269531 2.8503125 1.75289063 2.200625 1.20703125 1.53125 C0.80871094 1.0259375 0.41039062 0.520625 0 0 Z " fill="#5C24B6" transform="translate(332,118)"/>
<path d="M0 0 C0.6875 1.8125 0.6875 1.8125 1 4 C-0.4375 5.75 -0.4375 5.75 -2 7 C-2.99 6.67 -3.98 6.34 -5 6 C-3.35 4.02 -1.7 2.04 0 0 Z " fill="#7C4DC5" transform="translate(345,221)"/>
<path d="M0 0 C0 0.66 0 1.32 0 2 C-2.70879335 3.35439668 -5.00933268 3.06501451 -8 3 C-8 2.34 -8 1.68 -8 1 C-5.29120665 -0.35439668 -2.99066732 -0.06501451 0 0 Z " fill="#420A9F" transform="translate(303,483)"/>
<path d="M0 0 C7.50769231 -0.36923077 7.50769231 -0.36923077 10 1.5 C10.495 2.2425 10.495 2.2425 11 3 C9.741875 2.87625 8.48375 2.7525 7.1875 2.625 C6.12595703 2.52058594 6.12595703 2.52058594 5.04296875 2.4140625 C3 2 3 2 0 0 Z " fill="#8960C5" transform="translate(164,476)"/>
<path d="M0 0 C1.65 0 3.3 0 5 0 C1.71195019 2.91227269 -0.59885603 4.49701212 -5 5 C-4.360625 4.731875 -3.72125 4.46375 -3.0625 4.1875 C-0.66868314 3.11332248 -0.66868314 3.11332248 0 0 Z " fill="#805AC3" transform="translate(281,345)"/>
<path d="M0 0 C0.33 0 0.66 0 1 0 C1.25 6.625 1.25 6.625 -1 10 C-1.66 10 -2.32 10 -3 10 C-2.01 6.7 -1.02 3.4 0 0 Z " fill="#885BD0" transform="translate(354,202)"/>
<path d="M0 0 C0.66 0.33 1.32 0.66 2 1 C1.34 2.32 0.68 3.64 0 5 C-1.65 4.67 -3.3 4.34 -5 4 C-3.35 2.68 -1.7 1.36 0 0 Z " fill="#7147B8" transform="translate(329,386)"/>
<path d="M0 0 C1.32 0.33 2.64 0.66 4 1 C4.66 3.64 5.32 6.28 6 9 C3.03134491 6.45543849 1.6380249 3.51005335 0 0 Z " fill="#561AB5" transform="translate(345,132)"/>
</svg>
