<?xml version="1.0" encoding="UTF-8"?>
<svg version="1.1" xmlns="http://www.w3.org/2000/svg" width="225" height="225">
<path d="M0 0 C1.15943115 -0.0098568 1.15943115 -0.0098568 2.34228516 -0.01991272 C4.89738066 -0.03960127 7.45241736 -0.05130129 10.00756836 -0.0612793 C11.32192777 -0.06739259 11.32192777 -0.06739259 12.66283989 -0.07362938 C17.30500933 -0.09447588 21.94714938 -0.1087811 26.58935547 -0.11816406 C31.36159888 -0.12919733 36.13337202 -0.16356547 40.90544987 -0.20333576 C44.59373278 -0.2296095 48.28190573 -0.23786562 51.97027397 -0.24144554 C53.72797238 -0.24628743 55.48566667 -0.25783219 57.24327278 -0.27648354 C70.90018014 -0.41234575 81.78341711 0.56208963 92.05053711 10.56762695 C98.99047547 18.67231022 101.85972224 27.54969837 101.28491211 38.17700195 C99.80419224 47.2802102 95.26553012 55.17042366 88.28491211 61.17700195 C81.17353663 66.25234047 74.96809973 68.47835527 66.14331055 68.4675293 C64.95177116 68.47760513 64.95177116 68.47760513 63.73616028 68.48788452 C61.12213807 68.50680923 58.50837347 68.51078617 55.89428711 68.51293945 C54.06593727 68.51937216 52.23758844 68.52610087 50.40924072 68.53311157 C46.5795249 68.5450712 42.74989919 68.54879384 38.92016602 68.54760742 C34.03351067 68.54740453 29.1474388 68.57468219 24.26092148 68.60915184 C20.48430779 68.63148684 16.70783292 68.63544292 12.93115997 68.63438797 C11.13078047 68.63673494 9.33039662 68.64550705 7.5300827 68.6610527 C-10.56942798 68.80268689 -10.56942798 68.80268689 -18.71508789 64.17700195 C-19.71732391 63.60965836 -19.71732391 63.60965836 -20.73980713 63.03085327 C-28.34370356 58.44126545 -33.19566767 49.28548191 -35.29321289 40.8527832 C-36.90661668 30.61962026 -34.27473671 21.74288623 -28.71508789 13.17700195 C-21.62026551 3.74607952 -11.43830616 0.04237909 0 0 Z " fill="#1CD0A5" transform="translate(79.715087890625,156.822998046875)"/>
<path d="M0 0 C5.4901825 5.1047016 9.59714837 11.80840273 10.19921875 19.3984375 C10.42845478 30.38970193 8.67641008 38.47551191 1.02734375 46.63671875 C-6.97351261 53.44274023 -15.8456482 55.12956657 -26.0390625 54.39453125 C-34.17143581 52.95318379 -41.02410297 48.50296667 -45.90234375 41.85546875 C-51.14596243 33.37056788 -51.80877967 26.36786656 -51.0390625 16.39453125 C-48.99466067 8.08145153 -43.14337446 1.27436131 -36.1640625 -3.48046875 C-24.23078337 -10.26022043 -10.623663 -8.36460823 0 0 Z " fill="#FD9905" transform="translate(133.0390625,49.60546875)"/>
<path d="M0 0 C14.59654531 12.46695815 23.46157653 30.92354897 25 50 C25.07927734 50.95519531 25.07927734 50.95519531 25.16015625 51.9296875 C25.99573641 71.18436085 17.90237908 88.57538515 5.53515625 102.84375 C-6.6079871 115.82496638 -23.43257487 124.33793071 -41.29296875 125.2578125 C-60.3965515 125.89479519 -77.80213595 121.34330647 -92.4375 108.5625 C-93.98116095 107.06484219 -95.50323872 105.54453026 -97 104 C-97.70640625 103.29101562 -98.4128125 102.58203125 -99.140625 101.8515625 C-113.59639034 86.56817701 -117.54876963 69.00036155 -117.27734375 48.63671875 C-116.72645267 32.26620922 -109.73635952 18.11281587 -99 6 C-98.48050781 5.38640625 -97.96101563 4.7728125 -97.42578125 4.140625 C-71.89741458 -23.89556611 -28.22531704 -22.3603161 0 0 Z M-99.83203125 12.125 C-110.43139499 26.18109318 -115.85996783 43.35906801 -114 61 C-111.45867678 78.35944923 -104.51772447 91.76378357 -92 104 C-91.43925781 104.59296875 -90.87851563 105.1859375 -90.30078125 105.796875 C-79.21467809 116.62110171 -61.08798498 121.98212324 -46 122 C-26.5249567 120.91586297 -9.16497482 113.66213009 4.234375 99.24609375 C16.22641866 85.61689695 21.6587665 68.79979701 21.3046875 50.80078125 C19.79936082 32.02279591 12.14124732 15.55830602 -2 3 C-32.01027478 -22.23355284 -74.59385189 -17.17808967 -99.83203125 12.125 Z " fill="#C4C4C4" transform="translate(159,19)"/>
<path d="M0 0 C3.00672131 0.96215082 5.93095068 1.97028498 8.83203125 3.21875 C20.39966377 8.19146752 32.46517178 9.45581194 45 9 C45 9.33 45 9.66 45 10 C43.02 10.33 41.04 10.66 39 11 C40.98 11.33 42.96 11.66 45 12 C45 12.33 45 12.66 45 13 C27.49018336 13.68516674 13.50646221 11.81048989 -2 3 C-1.34 2.67 -0.68 2.34 0 2 C0 1.34 0 0.68 0 0 Z " fill="#C6C6C6" transform="translate(77,131)"/>
<path d="M0 0 C1.18239258 0.00676758 1.18239258 0.00676758 2.38867188 0.01367188 C4.32164761 0.02538688 6.25458393 0.04332002 8.1875 0.0625 C7.8575 0.7225 7.5275 1.3825 7.1875 2.0625 C4.7734375 2.5546875 4.7734375 2.5546875 1.5625 2.9375 C-4.96247527 3.83675238 -11.08160541 5.36871704 -17.40234375 7.16015625 C-20.53418627 7.98885685 -23.61013619 8.58825681 -26.8125 9.0625 C-25.78626309 6.19983914 -25.14654477 5.231943 -22.38671875 3.83203125 C-21.43410156 3.51621094 -20.48148437 3.20039062 -19.5 2.875 C-18.55511719 2.55144531 -17.61023438 2.22789063 -16.63671875 1.89453125 C-10.96060241 0.2223144 -5.87994073 -0.06407312 0 0 Z " fill="#BFBFBF" transform="translate(108.8125,2.9375)"/>
<path d="M0 0 C3.94731717 3.22962314 4.83323534 7.36337942 5.3359375 12.296875 C5.46867301 24.03069404 3.12068382 31.51019419 -5 40 C-6.0625 38.125 -6.0625 38.125 -7 36 C-6.67 35.34 -6.34 34.68 -6 34 C-5.34 34 -4.68 34 -4 34 C-3.67 33.34 -3.34 32.68 -3 32 C-2.34 32 -1.68 32 -1 32 C-0.87625 31.236875 -0.7525 30.47375 -0.625 29.6875 C0 27 0 27 2 24 C2.3626117 22.07255631 2.3626117 22.07255631 2.4140625 19.98828125 C2.47207031 18.85229492 2.47207031 18.85229492 2.53125 17.69335938 C2.57765625 16.51483398 2.57765625 16.51483398 2.625 15.3125 C2.68300781 14.11657227 2.68300781 14.11657227 2.7421875 12.89648438 C2.83632494 10.93136525 2.91924632 8.9657146 3 7 C2.34 7 1.68 7 1 7 C0.67 4.69 0.34 2.38 0 0 Z " fill="#F4AF4B" transform="translate(138,57)"/>
<path d="M0 0 C0.33 8.58 0.66 17.16 1 26 C0.01 25.67 -0.98 25.34 -2 25 C-3.25248502 22.49502996 -3.11374406 20.79146726 -3.09765625 17.9921875 C-3.09443359 17.00605469 -3.09121094 16.01992187 -3.08789062 15.00390625 C-3.07951172 13.97136719 -3.07113281 12.93882813 -3.0625 11.875 C-3.05798828 10.83472656 -3.05347656 9.79445313 -3.04882812 8.72265625 C-3.03701952 6.14838038 -3.02055075 3.57421854 -3 1 C-1 0 -1 0 0 0 Z " fill="#BCBCBC" transform="translate(45,61)"/>
<path d="M0 0 C9.05054166 -0.50803456 17.2350735 1.01281019 26 3 C26.33 3.99 26.66 4.98 27 6 C20.59449761 6.12559809 20.59449761 6.12559809 17.78125 5.53125 C14.09329387 4.82680894 10.431885 4.6416175 6.6875 4.4375 C5.94693359 4.39431641 5.20636719 4.35113281 4.44335938 4.30664062 C2.62908536 4.20129568 0.8145645 4.10021684 -1 4 C-1 3.67 -1 3.34 -1 3 C2.3 2.67 5.6 2.34 9 2 C6.03 1.67 3.06 1.34 0 1 C0 0.67 0 0.34 0 0 Z " fill="#BEBEBE" transform="translate(107,2)"/>
<path d="M0 0 C7.59 0 15.18 0 23 0 C23 0.33 23 0.66 23 1 C21.02 1.33 19.04 1.66 17 2 C19.97 2.495 19.97 2.495 23 3 C23 3.33 23 3.66 23 4 C19.93744039 4.0270491 16.8751214 4.04686298 13.8125 4.0625 C12.51602539 4.07506836 12.51602539 4.07506836 11.19335938 4.08789062 C6.99713231 4.10396812 3.09063114 4.07559038 -1 3 C-0.67 2.01 -0.34 1.02 0 0 Z " fill="#CCCCCC" transform="translate(99,140)"/>
<path d="M0 0 C1.65 0 3.3 0 5 0 C-1.49541199 6.07635315 -8.73061928 7.4700151 -17.40234375 7.23828125 C-20.83310404 6.92357993 -23.75887473 6.1524001 -27 5 C-23.22434481 3.76051724 -19.69152659 4.00531802 -15.75 4.125 C-9.83448678 4.23379105 -5.33842885 3.61474066 0 1 C0 0.67 0 0.34 0 0 Z " fill="#F0BC68" transform="translate(127,97)"/>
<path d="M0 0 C0.66 1.32 1.32 2.64 2 4 C2.66 2.68 3.32 1.36 4 0 C3.59060025 6.76215448 2.43046191 12.67162748 0 19 C-1.58203125 18.01171875 -1.58203125 18.01171875 -3 16 C-2.72527461 13.13163063 -2.32265908 10.59892586 -1.6875 7.8125 C-1.53087891 7.06291016 -1.37425781 6.31332031 -1.21289062 5.54101562 C-0.82397308 3.69071096 -0.41397878 1.84485928 0 0 Z " fill="#CDCDCD" transform="translate(179,80)"/>
<path d="M0 0 C3.13732013 2.56689829 3.95250293 5.13509701 5 9 C5.1953125 12.6484375 5.1953125 12.6484375 5.125 16.375 C5.10695312 17.62023437 5.08890625 18.86546875 5.0703125 20.1484375 C5.04710937 21.08945313 5.02390625 22.03046875 5 23 C4.34 23.33 3.68 23.66 3 24 C3 18.39 3 12.78 3 7 C2.34 7 1.68 7 1 7 C0.67 4.69 0.34 2.38 0 0 Z " fill="#EFB356" transform="translate(138,57)"/>
<path d="M0 0 C-0.33 0.66 -0.66 1.32 -1 2 C-2.32 2 -3.64 2 -5 2 C-5 1.34 -5 0.68 -5 0 C-7.58361518 -0.05407567 -10.16609255 -0.093707 -12.75 -0.125 C-13.47960937 -0.14175781 -14.20921875 -0.15851562 -14.9609375 -0.17578125 C-18.8044624 -0.21072239 -21.74606772 -0.17499684 -25 2 C-25.66 1.34 -26.32 0.68 -27 0 C-18.21085998 -3.87756177 -8.81002382 -3.90317511 0 0 Z " fill="#F0B965" transform="translate(126,45)"/>
<path d="M0 0 C0.33 0 0.66 0 1 0 C1.09298035 5.80610616 1.04137344 11.27244606 0 17 C-0.03762951 19.33302989 -0.04665734 21.66713319 0 24 C-2.26364287 20.38895067 -2.26808674 17.33016734 -2.25 13.125 C-2.25515625 11.93132812 -2.2603125 10.73765625 -2.265625 9.5078125 C-2.00134006 6.01769663 -1.25362935 3.25346663 0 0 Z " fill="#F3B454" transform="translate(84,60)"/>
<path d="M0 0 C0.33 0.99 0.66 1.98 1 3 C1.66 3 2.32 3 3 3 C2.43393721 7.69023454 1.81462495 12.34500026 1 17 C-0.5625 15.5625 -0.5625 15.5625 -2 13 C-2.02445362 8.55759205 -1.12821804 4.27944774 0 0 Z " fill="#CBCBCB" transform="translate(45,49)"/>
<path d="M0 0 C0 0.66 0 1.32 0 2 C-3.4766338 4.14336161 -6.21229195 4.21277626 -10.25 4.125 C-11.32765625 4.10695312 -12.4053125 4.08890625 -13.515625 4.0703125 C-14.33546875 4.04710937 -15.1553125 4.02390625 -16 4 C-15.67 3.34 -15.34 2.68 -15 2 C-9.81100071 0.38962091 -5.41000193 -0.22541675 0 0 Z " fill="#B8B8B8" transform="translate(131,139)"/>
<path d="M0 0 C0.66 0.99 1.32 1.98 2 3 C1.06502925 6.39989364 -0.14609666 8.88599753 -3 11 C-4.65931594 11.36818405 -6.3261074 11.70508907 -8 12 C-6.85573734 10.186508 -5.70954608 8.37423275 -4.5625 6.5625 C-3.60537109 5.04849609 -3.60537109 5.04849609 -2.62890625 3.50390625 C-1 1 -1 1 0 0 Z " fill="#C7C7C7" transform="translate(171,106)"/>
<path d="M0 0 C2 2 2 2 2.25 5.125 C1.97678029 9.35990544 1.14425432 12.92359399 0 17 C-0.66 17 -1.32 17 -2 17 C-2.33 14.36 -2.66 11.72 -3 9 C-2.01 9 -1.02 9 0 9 C0 6.03 0 3.06 0 0 Z " fill="#52D3B5" transform="translate(179,186)"/>
<path d="M0 0 C5.61 0 11.22 0 17 0 C16.67 0.66 16.34 1.32 16 2 C7.585 2.495 7.585 2.495 -1 3 C-0.67 2.01 -0.34 1.02 0 0 Z " fill="#B4B4B4" transform="translate(100,3)"/>
<path d="M0 0 C6.11090483 -0.09945415 11.97403427 -0.0712828 18 1 C17.360625 1.309375 16.72125 1.61875 16.0625 1.9375 C14.06389179 2.8345163 14.06389179 2.8345163 13 4 C10.64686445 4.07271741 8.29166332 4.08370868 5.9375 4.0625 C4.64714844 4.05347656 3.35679688 4.04445313 2.02734375 4.03515625 C1.02832031 4.02355469 0.02929688 4.01195312 -1 4 C-1 3.67 -1 3.34 -1 3 C2.3 2.67 5.6 2.34 9 2 C6.03 1.67 3.06 1.34 0 1 C0 0.67 0 0.34 0 0 Z " fill="#D8D8D8" transform="translate(107,2)"/>
<path d="M0 0 C0.66 0 1.32 0 2 0 C2 4.95 2 9.9 2 15 C1.34 15 0.68 15 0 15 C-1.47193312 12.05613377 -0.84936173 9.62609964 -0.5625 6.375 C-0.46066406 5.18648437 -0.35882813 3.99796875 -0.25390625 2.7734375 C-0.17011719 1.85820312 -0.08632813 0.94296875 0 0 Z " fill="#54D0B4" transform="translate(45,182)"/>
<path d="M0 0 C3.68754757 0.49831724 5.60490662 1.10067643 8 4 C7.67 4.99 7.34 5.98 7 7 C3.535 5.02 3.535 5.02 0 3 C0 2.01 0 1.02 0 0 Z " fill="#BDBDBD" transform="translate(149,14)"/>
<path d="M0 0 C5.32697239 1.45281065 8.36402802 5.08111378 12 9 C11.67 9.66 11.34 10.32 11 11 C9 9.625 9 9.625 7 8 C7 7.34 7 6.68 7 6 C5.68 5.67 4.36 5.34 3 5 C3 4.34 3 3.68 3 3 C2.01 2.67 1.02 2.34 0 2 C0 1.34 0 0.68 0 0 Z " fill="#F0AE50" transform="translate(126,46)"/>
<path d="M0 0 C3.54905382 0.60840923 6.80087037 1.31157047 10 3 C10.8125 5.125 10.8125 5.125 11 7 C6.00724943 5.72278474 3.42388092 3.82669043 0 0 Z " fill="#4CD1B1" transform="translate(54,215)"/>
<path d="M0 0 C0.33 0.99 0.66 1.98 1 3 C-4.75 7 -4.75 7 -7 7 C-6.3125 4.625 -6.3125 4.625 -5 2 C-2.375 0.6875 -2.375 0.6875 0 0 Z " fill="#BEBEBE" transform="translate(74,15)"/>
<path d="M0 0 C0.99 0.99 1.98 1.98 3 3 C-1.455 3.495 -1.455 3.495 -6 4 C-6.66 3.01 -7.32 2.02 -8 1 C-4.99825776 -0.00058075 -3.12414314 -0.31241431 0 0 Z " fill="#C7C7C7" transform="translate(100,4)"/>
<path d="M0 0 C1.875 0.3125 1.875 0.3125 4 1 C6 4 6 4 6 7 C4.125 6.6875 4.125 6.6875 2 6 C0 3 0 3 0 0 Z " fill="#BDBDBD" transform="translate(52,108)"/>
<path d="M0 0 C0.66 0.33 1.32 0.66 2 1 C-0.88341534 5.21422242 -3.04303419 6.76075855 -8 8 C-3.375 2.25 -3.375 2.25 0 0 Z " fill="#F2AC47" transform="translate(97,46)"/>
<path d="M0 0 C0.99 0 1.98 0 3 0 C3 0.99 3 1.98 3 3 C3.99 3.33 4.98 3.66 6 4 C3.35261084 5.4606285 2.10551666 6 -1 6 C-1.042721 4.33388095 -1.04063832 2.66617115 -1 1 C-0.67 0.67 -0.34 0.34 0 0 Z " fill="#40D3B0" transform="translate(156,218)"/>
<path d="M0 0 C0.99 0.33 1.98 0.66 3 1 C2.67 2.32 2.34 3.64 2 5 C1.01 5 0.02 5 -1 5 C-3.18777466 6.9375006 -3.18777466 6.9375006 -5 9 C-3.7508258 5.54074837 -2.32472205 2.85306797 0 0 Z " fill="#CDCDCD" transform="translate(57,28)"/>
<path d="M0 0 C1.65 0.33 3.3 0.66 5 1 C5 2.32 5 3.64 5 5 C2.36 4.34 -0.28 3.68 -3 3 C-2.01 2.67 -1.02 2.34 0 2 C0 1.34 0 0.68 0 0 Z " fill="#CACACA" transform="translate(134,6)"/>
<path d="M0 0 C2.0625 0.4375 2.0625 0.4375 4 1 C2.625 3.5 2.625 3.5 1 6 C0.34 6 -0.32 6 -1 6 C-1.042721 4.33388095 -1.04063832 2.66617115 -1 1 C-0.67 0.67 -0.34 0.34 0 0 Z " fill="#3DD0AC" transform="translate(170,210)"/>
<path d="M0 0 C1.32 0.33 2.64 0.66 4 1 C4.33 2.32 4.66 3.64 5 5 C3.68 4.67 2.36 4.34 1 4 C0.67 2.68 0.34 1.36 0 0 Z " fill="#BDBDBD" transform="translate(64,122)"/>
<path d="M0 0 C0 3.3 0 6.6 0 10 C-3.375 5.5 -3.375 5.5 -3 1 C-1 0 -1 0 0 0 Z " fill="#C4C4C4" transform="translate(46,56)"/>
<path d="M0 0 C0.33 0.99 0.66 1.98 1 3 C-0.4375 5.6875 -0.4375 5.6875 -2 8 C-2.99 7.67 -3.98 7.34 -5 7 C-3.35 4.69 -1.7 2.38 0 0 Z " fill="#BABABA" transform="translate(57,31)"/>
<path d="M0 0 C-1.39332574 3.36720387 -2.9789286 4.9859524 -6 7 C-6.66 6.34 -7.32 5.68 -8 5 C-2.25 0 -2.25 0 0 0 Z " fill="#BDBDBD" transform="translate(66,23)"/>
<path d="M0 0 C0.99 0.495 0.99 0.495 2 1 C2 3.64 2 6.28 2 9 C2.66 9 3.32 9 4 9 C3.34 10.32 2.68 11.64 2 13 C0.71553081 10.43106162 0.67022856 8.23423663 0.4375 5.375 C0.35371094 4.37210937 0.26992187 3.36921875 0.18359375 2.3359375 C0.12300781 1.56507812 0.06242187 0.79421875 0 0 Z " fill="#F0A537" transform="translate(83,75)"/>
<path d="M0 0 C1.32 0.66 2.64 1.32 4 2 C4 2.99 4 3.98 4 5 C2.68 4.67 1.36 4.34 0 4 C0 2.68 0 1.36 0 0 Z " fill="#BFBFBF" transform="translate(162,24)"/>
</svg>
