<?xml version="1.0" encoding="UTF-8"?>
<svg version="1.1" xmlns="http://www.w3.org/2000/svg" width="500" height="500">
<path d="M0 0 C0.66 -0.00128906 1.32 -0.00257812 2 -0.00390625 C5.69893596 1.04364397 7.63582698 3.97267924 9.59301758 7.14257812 C10.36101685 8.6034082 10.36101685 8.6034082 11.14453125 10.09375 C11.73113525 11.19992676 12.31773926 12.30610352 12.92211914 13.44580078 C13.55230073 14.65133863 14.18242613 15.85690585 14.8125 17.0625 C15.47635584 18.31925804 16.14100215 19.57559881 16.80639648 20.83154297 C18.18846865 23.44174501 19.56712306 26.05370877 20.94335938 28.66699219 C24.11888955 34.69033542 27.34223592 40.68798228 30.5625 46.6875 C37.56527651 59.73737346 37.56527651 59.73737346 40.98780823 66.18914795 C41.96709708 68.0338594 42.94879712 69.87726494 43.93139648 71.72021484 C45.16198211 74.0293397 46.3882368 76.34077916 47.60961914 78.65478516 C48.15739014 79.68007324 48.70516113 80.70536133 49.26953125 81.76171875 C49.75010986 82.66752686 50.23068848 83.57333496 50.72583008 84.5065918 C51.83576056 86.69899237 51.83576056 86.69899237 54 87.5625 C54.26570801 86.70350098 54.53141602 85.84450195 54.80517578 84.95947266 C56.66942202 79.65928422 59.3272678 74.76908698 61.91259766 69.79394531 C62.87373354 67.93994296 63.82189055 66.07967882 64.76953125 64.21875 C65.38463704 63.02824269 66.00049719 61.83812478 66.6171875 60.6484375 C67.17003418 59.5764209 67.72288086 58.5044043 68.29248047 57.39990234 C69.97270135 54.60786244 71.47793155 52.61852749 74 50.5625 C79.48595506 49.69171348 79.48595506 49.69171348 82 50.5625 C85.87950644 54.76124669 88.53417905 59.04191769 91.07421875 64.13671875 C91.62290619 65.21339058 91.62290619 65.21339058 92.18267822 66.31181335 C93.35785254 68.62111283 94.52258801 70.93550973 95.6875 73.25 C96.49398053 74.83785597 97.30135667 76.42525737 98.10961914 78.01220703 C99.69339874 81.12228333 101.27443659 84.23372619 102.85351562 87.34619141 C105.50577631 92.5656221 108.20680301 97.75870202 110.9375 102.9375 C111.3193042 103.66541748 111.7011084 104.39333496 112.09448242 105.14331055 C113.96187431 108.68286503 115.90135824 112.15467419 118 115.5625 C121.23048748 114.1425745 123.38242488 112.42630613 125.86328125 109.9296875 C126.58580078 109.20523438 127.30832031 108.48078125 128.05273438 107.734375 C128.79845703 106.97640625 129.54417969 106.2184375 130.3125 105.4375 C131.04662109 104.70273438 131.78074219 103.96796875 132.53710938 103.2109375 C136.61904883 99.09640048 140.52195805 94.88155033 144.30932617 90.49560547 C147.10799654 87.29562396 150.03119514 84.22919963 153 81.1875 C153.5775 80.57261719 154.155 79.95773438 154.75 79.32421875 C158.63103669 75.3652148 161.4763882 73.44020653 167 72.5625 C170.40948353 73.65610792 172.37327292 74.36463543 174.06538391 77.59877014 C175.34415789 81.65384758 175.98672654 85.72400624 176.64135742 89.91967773 C176.79339693 90.86364033 176.94543644 91.80760292 177.10208321 92.78017044 C177.60872173 95.93462327 178.10703606 99.09033477 178.60546875 102.24609375 C178.96523313 104.49542947 179.32553067 106.74467997 179.68632507 108.99385071 C180.65889915 115.06683299 181.62418797 121.14095003 182.58730316 127.21543884 C184.19856589 137.37530967 185.81664959 147.53409911 187.43341064 157.69309616 C187.84643748 160.28960425 188.25913458 162.88616482 188.67150879 165.48277664 C191.42135832 182.79670962 194.23010912 200.09957898 197.10731697 217.39279366 C198.19302979 223.93191015 199.26695927 230.47297272 200.34056377 237.01408672 C201.18786725 242.16931391 202.0436014 247.32286512 202.91781616 252.47360229 C203.73285344 257.2760058 204.52735405 262.08134466 205.30591774 266.88979149 C205.59351816 268.64141033 205.88900394 270.39175528 206.19290733 272.14061928 C206.60367592 274.50983116 206.98662988 276.88192295 207.36279297 279.25683594 C207.48919757 279.9457212 207.61560217 280.63460646 207.74583721 281.34436703 C208.03268433 283.26654053 208.03268433 283.26654053 208 286.5625 C205.5836728 289.70026027 202.78692142 291.4604133 199.3515625 293.375 C198.44019531 293.88675781 197.52882813 294.39851563 196.58984375 294.92578125 C195.61144531 295.46589844 194.63304687 296.00601562 193.625 296.5625 C192.09166016 297.41908203 192.09166016 297.41908203 190.52734375 298.29296875 C182.80166584 302.59768227 175.03633331 306.82982535 167.26293945 311.04760742 C160.74196103 314.59193193 154.2675193 318.21206137 147.8125 321.875 C130.78623077 331.53540825 113.66690238 341.02939093 96.5 350.4375 C95.12026001 351.1965564 95.12026001 351.1965564 93.71264648 351.97094727 C92.86903564 352.43170654 92.0254248 352.89246582 91.15625 353.3671875 C90.05506836 353.97022705 90.05506836 353.97022705 88.93164062 354.58544922 C83.1746598 357.49741045 77.28086875 357.41868502 71 356.5625 C65.33257169 354.48966158 60.23314933 351.54267728 55 348.5625 C53.10130591 347.50853104 51.20149605 346.45657045 49.30078125 345.40625 C43.9449421 342.4352799 38.60990866 339.42865926 33.27880859 336.41357422 C27.98675342 333.42590763 22.67991817 330.46474439 17.375 327.5 C8.51516239 322.54253785 -0.32670428 317.55418898 -9.15844727 312.546875 C-14.50136252 309.52301821 -19.85812935 306.52584218 -25.23046875 303.5546875 C-25.8415448 303.21648483 -26.45262085 302.87828217 -27.08221436 302.52983093 C-30.06701665 300.87834999 -33.05344665 299.23000345 -36.04248047 297.58618164 C-38.15075628 296.42136319 -40.25200459 295.24368606 -42.34423828 294.05029297 C-44.87597522 292.58578297 -44.87597522 292.58578297 -47.10498047 291.59423828 C-48.77734375 290.75390625 -48.77734375 290.75390625 -51 288.5625 C-51.99212178 281.39227515 -50.48907175 273.92677493 -49.34204102 266.85620117 C-49.16418312 265.72067307 -48.98632523 264.58514496 -48.8030777 263.41520691 C-48.21057696 259.64411539 -47.60722243 255.87484381 -47.00390625 252.10546875 C-46.57772966 249.41197479 -46.15393437 246.71810759 -45.73008728 244.02424622 C-44.82310443 238.26726235 -43.91075878 232.51115032 -42.99462891 226.75561523 C-41.55404938 217.70479031 -40.12381264 208.65234756 -38.6953125 199.59960938 C-38.21188181 196.53670328 -37.72837918 193.47380855 -37.24484253 190.41091919 C-37.12476581 189.65026818 -37.0046891 188.88961718 -36.8809737 188.10591614 C-36.02540971 182.68710412 -35.16830912 177.26853642 -34.31057739 171.85006714 C-31.17940468 152.06686496 -28.07383146 132.27986866 -24.99609375 112.48828125 C-24.80209047 111.24113028 -24.6080872 109.9939793 -24.40820503 108.70903587 C-22.75214189 98.06210816 -21.0978573 87.41490463 -19.44534302 76.76742554 C-17.71580029 65.62686314 -15.97996735 54.48738229 -14.22184086 43.3512907 C-13.43471746 38.35791422 -12.66310957 33.36257429 -11.90871429 28.364151 C-11.47594405 25.51350234 -11.03104392 22.66484955 -10.58265686 19.81661987 C-10.2933628 17.95302891 -10.01980786 16.08701531 -9.74694824 14.22094727 C-7.43639997 -0.24691172 -7.43639997 -0.24691172 0 0 Z " fill="#FECB2F" transform="translate(172,71.4375)"/>
<path d="M0 0 C2.97343268 0.66200954 4.05519208 2.20234617 6.0703125 4.4609375 C7.18453097 6.26554451 8.22792033 8.11493647 9.21484375 9.9921875 C9.80144775 11.09836426 10.38805176 12.20454102 10.99243164 13.34423828 C11.62261323 14.54977613 12.25273863 15.75534335 12.8828125 16.9609375 C13.54666834 18.21769554 14.21131465 19.47403631 14.87670898 20.72998047 C16.25878115 23.34018251 17.63743556 25.95214627 19.01367188 28.56542969 C22.18920205 34.58877292 25.41254842 40.58641978 28.6328125 46.5859375 C35.63558901 59.63581096 35.63558901 59.63581096 39.05812073 66.08758545 C40.03740958 67.9322969 41.01910962 69.77570244 42.00170898 71.61865234 C43.23229461 73.9277772 44.4585493 76.23921666 45.67993164 78.55322266 C46.22770264 79.57851074 46.77547363 80.60379883 47.33984375 81.66015625 C47.82042236 82.56596436 48.30100098 83.47177246 48.79614258 84.4050293 C49.90607306 86.59742987 49.90607306 86.59742987 52.0703125 87.4609375 C52.33602051 86.60193848 52.60172852 85.74293945 52.87548828 84.85791016 C54.73973452 79.55772172 57.3975803 74.66752448 59.98291016 69.69238281 C60.94404604 67.83838046 61.89220305 65.97811632 62.83984375 64.1171875 C63.45494954 62.92668019 64.07080969 61.73656228 64.6875 60.546875 C65.24034668 59.4748584 65.79319336 58.4028418 66.36279297 57.29833984 C68.04301385 54.50629994 69.54824405 52.51696499 72.0703125 50.4609375 C77.55626756 49.59015098 77.55626756 49.59015098 80.0703125 50.4609375 C83.94983171 54.65969802 86.6044411 58.94036812 89.14453125 64.03515625 C89.69321869 65.11162415 89.69321869 65.11162415 90.25299072 66.20983887 C91.42835491 68.51918424 92.59316808 70.83367041 93.7578125 73.1484375 C94.96626504 75.53074731 96.17716726 77.91180131 97.38819885 80.2928009 C98.18341393 81.8567796 98.97772311 83.42121925 99.77110291 84.98612976 C103.14374245 91.63261142 106.60673374 98.22881099 110.16479492 104.77807617 C112.59039084 109.30850491 114.23100363 113.55611386 116.0703125 118.4609375 C61.2903125 173.2409375 6.5103125 228.0209375 -49.9296875 284.4609375 C-50.2596875 283.1409375 -50.5896875 281.8209375 -50.9296875 280.4609375 C-50.5996875 280.1309375 -50.2696875 279.8009375 -49.9296875 279.4609375 C-49.69315227 276.93497491 -49.50795058 274.42986543 -49.3671875 271.8984375 C-49.32400391 271.18751953 -49.28082031 270.47660156 -49.23632812 269.74414062 C-49.12996973 267.98331838 -49.02929904 266.2221543 -48.9296875 264.4609375 C-48.2696875 264.4609375 -47.6096875 264.4609375 -46.9296875 264.4609375 C-46.95289062 263.41035156 -46.97609375 262.35976563 -47 261.27734375 C-47.13524777 252.47365757 -46.74750984 244.91440452 -43.9296875 236.4609375 C-43.77606713 234.4837864 -43.65551526 232.50398274 -43.5546875 230.5234375 C-43.2577051 226.15013211 -42.69701486 222.27550028 -41.4296875 218.0859375 C-40.14214785 213.38438152 -39.76452256 209.05020527 -39.66926384 204.21524715 C-39.37930747 189.52937816 -37.1893195 175.25683726 -34.81830359 160.78715968 C-34.24457448 157.26694237 -33.68646762 153.74424391 -33.12649536 150.22181702 C-32.06138899 143.53605067 -30.98349486 136.85241762 -29.90042698 130.16953999 C-28.45837898 121.26820096 -27.03388661 112.36406049 -25.60920954 103.4599278 C-25.25914432 101.27207667 -24.90903482 99.08423264 -24.55889893 96.89639282 C-24.44407897 96.17882549 -24.32925902 95.46125816 -24.21095967 94.72194636 C-23.52181461 90.41725112 -22.82986714 86.11301722 -22.13561845 81.80914223 C-19.95429083 68.28512252 -17.79912767 54.759078 -15.79394531 41.20751953 C-15.63215097 40.11879956 -15.47035664 39.03007959 -15.30365944 37.90836811 C-14.56538896 32.93174853 -13.83736699 27.95404056 -13.12863159 22.97312927 C-12.8765833 21.25490976 -12.62425245 19.53673166 -12.37158203 17.81860352 C-12.21698706 16.68744079 -12.21698706 16.68744079 -12.05926895 15.53342628 C-10.83317481 7.33421034 -9.35527554 0.39128529 0 0 Z " fill="#F99712" transform="translate(173.9296875,71.5390625)"/>
<path d="M0 0 C5.63080108 1.95033334 8.6652354 9.27308658 11.171875 14.30078125 C11.53766663 15.01842651 11.90345825 15.73607178 12.28033447 16.47546387 C13.45569866 18.78480924 14.62051183 21.09929541 15.78515625 23.4140625 C16.99360879 25.79637231 18.20451101 28.17742631 19.4155426 30.5584259 C20.21075768 32.1224046 21.00506686 33.68684425 21.79844666 35.25175476 C25.1710862 41.89823642 28.63407749 48.49443599 32.19213867 55.04370117 C34.57497532 59.4942659 36.40866979 63.96669156 38.09765625 68.7265625 C35.05163862 71.888721 31.98323899 75.02821804 28.91015625 78.1640625 C28.04583984 79.06189453 27.18152344 79.95972656 26.29101562 80.88476562 C25.44990234 81.73876953 24.60878906 82.59277344 23.7421875 83.47265625 C22.97237549 84.26341553 22.20256348 85.0541748 21.40942383 85.86889648 C18.86997243 87.90952228 17.28256235 88.32191324 14.09765625 88.7265625 C13.10765625 89.2215625 13.10765625 89.2215625 12.09765625 89.7265625 C11.87078125 90.5309375 11.64390625 91.3353125 11.41015625 92.1640625 C10.09765625 94.7265625 10.09765625 94.7265625 6.47265625 96.0390625 C5.35890625 96.2659375 4.24515625 96.4928125 3.09765625 96.7265625 C2.80632812 96.12070313 2.515 95.51484375 2.21484375 94.890625 C-0.00356523 90.35614123 -2.31339793 85.96169859 -4.96484375 81.6640625 C-11.90234375 70.31667878 -11.90234375 70.31667878 -11.90234375 65.7265625 C-12.56234375 65.7265625 -13.22234375 65.7265625 -13.90234375 65.7265625 C-15.3974526 62.71337085 -16.8704275 59.68985591 -18.33984375 56.6640625 C-18.97116211 55.39272461 -18.97116211 55.39272461 -19.61523438 54.09570312 C-21.96445377 49.22812053 -23.49915987 45.12922649 -23.90234375 39.7265625 C-24.64484375 39.8503125 -25.38734375 39.9740625 -26.15234375 40.1015625 C-27.51359375 39.9159375 -27.51359375 39.9159375 -28.90234375 39.7265625 C-31.08984375 36.7265625 -31.08984375 36.7265625 -32.90234375 33.7265625 C-33.56234375 33.7265625 -34.22234375 33.7265625 -34.90234375 33.7265625 C-35.23234375 30.4265625 -35.56234375 27.1265625 -35.90234375 23.7265625 C-33.19468387 27.33677568 -31.17079507 30.8324075 -29.0859375 34.80078125 C-28.04416834 36.87558509 -28.04416834 36.87558509 -25.90234375 37.7265625 C-25.63663574 36.86756348 -25.37092773 36.00856445 -25.09716797 35.12353516 C-23.23292173 29.82334672 -20.57507595 24.93314948 -17.98974609 19.95800781 C-17.02861021 18.10400546 -16.0804532 16.24374132 -15.1328125 14.3828125 C-14.51770671 13.19230519 -13.90184656 12.00218728 -13.28515625 10.8125 C-12.73230957 9.7404834 -12.17946289 8.6684668 -11.60986328 7.56396484 C-8.4280194 2.27666293 -6.32348356 0.32685999 0 0 Z " fill="#FCA412" transform="translate(251.90234375,121.2734375)"/>
<path d="M0 0 C0.33 1.32 0.66 2.64 1 4 C-0.32 4.33 -1.64 4.66 -3 5 C-3.0825 5.598125 -3.165 6.19625 -3.25 6.8125 C-4.21576779 9.62932273 -5.48868567 10.47799132 -8 12 C-8.66 12 -9.32 12 -10 12 C-10.25974609 12.58789307 -10.51949219 13.17578613 -10.78710938 13.78149414 C-12.08339911 16.15254584 -13.45338347 17.63863484 -15.40625 19.49609375 C-16.39818359 20.45805664 -16.39818359 20.45805664 -17.41015625 21.43945312 C-18.80143576 22.76962035 -20.19466247 24.09775395 -21.58984375 25.42382812 C-25.0554227 28.79145212 -27.50020222 31.30121158 -29 36 C-30.65071396 37.02611949 -32.31970006 38.02308143 -34 39 C-35.21857533 40.44304974 -36.43512514 41.88865851 -37.60546875 43.37109375 C-40.06675927 46.24604654 -42.914209 48.80807793 -46 51 C-46.66 51 -47.32 51 -48 51 C-48.24492187 51.55042969 -48.48984375 52.10085937 -48.7421875 52.66796875 C-52.59802615 59.8168373 -58.54483685 65.91241024 -64.765625 71.05078125 C-67.68485433 73.59745159 -70.35559652 76.35623399 -73.0625 79.125 C-76.21563345 82.34304512 -79.29947387 85.42615841 -83.0625 87.9375 C-86.12008808 90.08431717 -87.28665806 91.74465032 -89 95 C-90.5625 96.8125 -90.5625 96.8125 -92 98 C-92.66 98 -93.32 98 -94 98 C-94 98.99 -94 99.98 -94 101 C-94.680625 101.391875 -95.36125 101.78375 -96.0625 102.1875 C-98.8610152 103.91424342 -100.28910846 105.33579808 -102.375 107.8125 C-105.56924459 111.59387051 -108.92002881 115.15801479 -113 118 C-113.66 118 -114.32 118 -115 118 C-115.28875 118.639375 -115.5775 119.27875 -115.875 119.9375 C-117 122 -117 122 -119 123 C-119.45375 123.804375 -119.9075 124.60875 -120.375 125.4375 C-122.12757005 128.20116815 -123.14140069 128.66598699 -126 130 C-126.33 130.99 -126.66 131.98 -127 133 C-128.63671875 134.61328125 -128.63671875 134.61328125 -130.6875 136.3125 C-133.38374342 138.58760665 -135.93223742 140.8922017 -138.375 143.4375 C-141 146 -141 146 -143 146 C-143.33 146.99 -143.66 147.98 -144 149 C-144.66 149.33 -145.32 149.66 -146 150 C-146.268125 150.5775 -146.53625 151.155 -146.8125 151.75 C-148.38880234 154.73667812 -150.56275932 156.68164911 -153 159 C-153.556875 159.598125 -154.11375 160.19625 -154.6875 160.8125 C-156 162 -156 162 -158 162 C-158.33 162.99 -158.66 163.98 -159 165 C-159.99 165 -160.98 165 -162 165 C-162.27199219 165.58910156 -162.54398438 166.17820312 -162.82421875 166.78515625 C-166.33605768 173.40048074 -172.51550475 179.00432888 -178.25 183.6875 C-181.01742194 185.7042322 -181.01742194 185.7042322 -182 188 C-182.66 188 -183.32 188 -184 188 C-184.2475 188.57492187 -184.495 189.14984375 -184.75 189.7421875 C-186.18881835 192.34105314 -187.86739609 194.06296019 -190 196.125 C-190.70125 196.80820312 -191.4025 197.49140625 -192.125 198.1953125 C-193.053125 199.08863281 -193.053125 199.08863281 -194 200 C-194.99 200.99 -194.99 200.99 -196 202 C-196.99 202 -197.98 202 -199 202 C-195.7844696 205.45371784 -192.57043479 208.39519182 -187.875 209.5 C-185.48885896 210.13630428 -184.74541401 211.25458599 -183 213 C-180.71095769 214.42680216 -178.36801752 215.7042923 -176 217 C-176 217.66 -176 218.32 -176 219 C-181.92182229 217.34739843 -187.05460808 214.5055281 -192.375 211.5 C-193.30183594 211.02046875 -194.22867188 210.5409375 -195.18359375 210.046875 C-196.49650391 209.29664063 -196.49650391 209.29664063 -197.8359375 208.53125 C-198.63563965 208.09361328 -199.4353418 207.65597656 -200.25927734 207.20507812 C-203.24267097 203.42583392 -202.4531549 199.63547693 -202 195 C-201.22303101 188.5967574 -200.18324058 182.23403873 -199.15625 175.8671875 C-198.86411624 174.02070533 -198.57266387 172.17411524 -198.28186035 170.3274231 C-197.51925273 165.49642174 -196.74746997 160.66693084 -195.97369385 155.83770752 C-195.18389063 150.89790105 -194.40287494 145.95670622 -193.62109375 141.015625 C-192.08927179 131.34237997 -190.54774229 121.67070958 -189 112 C-188.67 112 -188.34 112 -188 112 C-187.69919559 120.77903247 -187.78661847 128.54055944 -190.2734375 137.046875 C-191.33598826 141.3656297 -191.51016446 145.65765816 -191.69140625 150.08984375 C-192 153 -192 153 -192.97973633 155.33691406 C-194.06268765 158.16362692 -194.39733477 160.50878024 -194.6328125 163.51953125 C-194.71660156 164.54111328 -194.80039063 165.56269531 -194.88671875 166.61523438 C-194.96535156 167.67033203 -195.04398437 168.72542969 -195.125 169.8125 C-195.21136719 170.88693359 -195.29773438 171.96136719 -195.38671875 173.06835938 C-195.59819131 175.71176643 -195.80237154 178.35552789 -196 181 C-196.66 181 -197.32 181 -198 181 C-198 182.04800781 -198 183.09601563 -198 184.17578125 C-198 189.1171875 -198 194.05859375 -198 199 C-177.07593354 178.18990875 -156.16459448 157.36709743 -135.27104234 136.52636899 C-132.80635945 134.0679399 -130.34156783 131.60961986 -127.87670898 129.15136719 C-127.38598585 128.66195561 -126.89526272 128.17254403 -126.38966919 127.66830179 C-118.43564195 119.73605233 -110.4728314 111.81267632 -102.50676029 103.89252427 C-94.33770963 95.77017236 -86.17831799 87.63822497 -78.02731615 79.49775863 C-73.44673338 74.92371073 -68.86180806 70.35421006 -64.26640129 65.79505157 C-59.9457163 61.50817447 -55.63676757 57.20985111 -51.33672905 52.90226746 C-49.75232288 51.31924264 -48.16359184 49.7405335 -46.57036209 48.16638947 C-44.40385849 46.02458418 -42.25312795 43.868116 -40.1058197 41.70709229 C-39.46479134 41.08062813 -38.82376298 40.45416398 -38.16330951 39.80871606 C-36.23765756 37.90949803 -36.23765756 37.90949803 -34 35 C-34.2724291 32.84037442 -34.2724291 32.84037442 -35 31 C-34.42870361 31.24290771 -33.85740723 31.48581543 -33.26879883 31.73608398 C-30.88301209 32.27206125 -30.88301209 32.27206125 -28.9128418 30.49633789 C-27.81709839 29.37086548 -27.81709839 29.37086548 -26.69921875 28.22265625 C-25.88646484 27.39830078 -25.07371094 26.57394531 -24.23632812 25.72460938 C-23.39521484 24.84611328 -22.55410156 23.96761719 -21.6875 23.0625 C-20.85798828 22.21880859 -20.02847656 21.37511719 -19.17382812 20.50585938 C-14.79430451 16.02263749 -10.55374085 11.44995899 -6.47753906 6.68920898 C-4.42448987 4.3420432 -2.23802924 2.17021018 0 0 Z " fill="#FEC742" transform="translate(323,155)"/>
<path d="M0 0 C2.92694015 0.08981585 3.90813232 0.22439744 6.375 1.9375 C12.125 9.94642857 12.125 9.94642857 12.125 13.375 C11.465 13.375 10.805 13.375 10.125 13.375 C9.10633771 11.71967377 8.10689187 10.05239862 7.125 8.375 C6.465 8.045 5.805 7.715 5.125 7.375 C5.125 6.055 5.125 4.735 5.125 3.375 C2.155 3.375 -0.815 3.375 -3.875 3.375 C-4.205 5.355 -4.535 7.335 -4.875 9.375 C-5.535 9.375 -6.195 9.375 -6.875 9.375 C-6.875 13.335 -6.875 17.295 -6.875 21.375 C-7.535 21.375 -8.195 21.375 -8.875 21.375 C-8.82279297 22.179375 -8.82279297 22.179375 -8.76953125 23 C-8.5510098 29.32671636 -9.48162977 35.21456895 -10.7331543 41.38720703 C-11.72948363 46.36234947 -12.34243665 51.2665015 -12.6640625 56.3359375 C-12.875 58.375 -12.875 58.375 -13.875 60.375 C-14.10358114 62.4124763 -14.28524278 64.45540303 -14.4375 66.5 C-14.52128906 67.59570312 -14.60507813 68.69140625 -14.69140625 69.8203125 C-14.78228516 71.08488281 -14.78228516 71.08488281 -14.875 72.375 C-15.535 72.375 -16.195 72.375 -16.875 72.375 C-16.82279297 73.28765625 -16.82279297 73.28765625 -16.76953125 74.21875 C-16.57206695 80.61283215 -17.31647416 86.46772025 -18.59033203 92.73046875 C-19.80199414 98.75051629 -20.71279985 104.79396383 -21.5625 110.875 C-21.69374268 111.8139209 -21.82498535 112.7528418 -21.96020508 113.72021484 C-22.26793599 115.93810647 -22.5730695 118.15631242 -22.875 120.375 C-23.535 120.375 -24.195 120.375 -24.875 120.375 C-24.73191406 122.07269531 -24.73191406 122.07269531 -24.5859375 123.8046875 C-24.47340115 125.28641612 -24.36145242 126.76818945 -24.25 128.25 C-24.18554688 128.99636719 -24.12109375 129.74273437 -24.0546875 130.51171875 C-23.91412635 132.4620047 -23.88740151 134.41969467 -23.875 136.375 C-24.865 137.365 -24.865 137.365 -25.875 138.375 C-26.40971043 140.26859442 -26.40971043 140.26859442 -26.69140625 142.4375 C-26.81580078 143.23414063 -26.94019531 144.03078125 -27.06835938 144.8515625 C-27.19017578 145.68429688 -27.31199219 146.51703125 -27.4375 147.375 C-27.68596856 149.02126349 -27.93714465 150.66712128 -28.19140625 152.3125 C-28.29912354 153.04339844 -28.40684082 153.77429688 -28.51782227 154.52734375 C-28.875 156.375 -28.875 156.375 -29.875 158.375 C-30.0585403 160.70567045 -30.19716036 163.03996069 -30.3125 165.375 C-31.24071656 181.74071656 -31.24071656 181.74071656 -33.875 184.375 C-34.10787008 186.05683948 -34.28764166 187.7462416 -34.4375 189.4375 C-34.52128906 190.35660156 -34.60507813 191.27570313 -34.69140625 192.22265625 C-34.75199219 192.93292969 -34.81257812 193.64320313 -34.875 194.375 C-35.535 194.375 -36.195 194.375 -36.875 194.375 C-36.28389998 185.7284601 -35.19017502 177.24003232 -33.82128906 168.68481445 C-33.61213251 167.35735385 -33.40336329 166.02983217 -33.19494629 164.70225525 C-32.63240814 161.12586979 -32.06458882 157.55034119 -31.49582386 153.97494149 C-30.89431348 150.18727632 -30.2979838 146.39879554 -29.70111084 142.61039734 C-28.56655987 135.41408869 -27.42776978 128.21845809 -26.28727317 121.02308959 C-24.63251824 110.58230305 -22.98337515 100.14063002 -21.33510971 89.69881725 C-21.21209118 88.91950086 -21.08907265 88.14018448 -20.96232629 87.33725244 C-20.716037 85.77700034 -20.46976054 84.21674622 -20.22349715 82.65649003 C-19.51944329 78.19677112 -18.81397633 73.7372791 -18.10709834 69.27800697 C-17.66191464 66.46859996 -17.21762814 63.65905141 -16.77344084 60.84948671 C-16.55665486 59.47978582 -16.33945523 58.11015033 -16.12182665 56.74058306 C-14.8763285 48.90134891 -13.6747549 41.05795825 -12.54089355 33.20175171 C-12.21085959 30.93878283 -11.88031152 28.67588943 -11.54974318 26.41299856 C-11.24210479 24.2836505 -10.94505325 22.15300582 -10.64838028 20.02210712 C-7.83847068 0.75856168 -7.83847068 0.75856168 0 0 Z " fill="#BAA16D" transform="translate(171.875,71.625)"/>
<path d="M0 0 C2.31 0 4.62 0 7 0 C2.64304101 5.21063922 -1.9358616 10.07416581 -6.74951172 14.86303711 C-7.50141281 15.61508423 -8.2533139 16.36713135 -9.02799988 17.14196777 C-11.492864 19.60613996 -13.96124211 22.06675951 -16.4296875 24.52734375 C-18.14768975 26.24347927 -19.86547012 27.95983694 -21.58303833 29.67640686 C-26.08856861 34.17813208 -30.59709471 38.67684517 -35.10626221 43.17492676 C-39.71328801 47.77169509 -44.31745913 52.37132077 -48.921875 56.97070312 C-57.94513302 65.98325932 -66.97146348 74.99273182 -76 84 C-76.609375 82.140625 -76.609375 82.140625 -77 80 C-75.68962066 78.31522656 -74.35156675 76.65191491 -73 75 C-72.48094108 73.61850471 -72.00312582 72.22097445 -71.5625 70.8125 C-70.29234481 67.16592544 -70.29234481 67.16592544 -67.6875 65.6875 C-66.800625 65.460625 -65.91375 65.23375 -65 65 C-61.17058391 63.40440996 -59.18506277 62.22207532 -56.5 59 C-53.8677259 55.84127107 -51.75151345 54.57040098 -48 53 C-48 51.35 -48 49.7 -48 48 C-47.071875 47.9175 -46.14375 47.835 -45.1875 47.75 C-41.95571536 47.28468699 -41.95571536 47.28468699 -40.125 45.125 C-38.76605614 42.95884321 -38.76605614 42.95884321 -39 40 C-38.21625 39.9175 -37.4325 39.835 -36.625 39.75 C-33.89415132 39.26796244 -33.89415132 39.26796244 -32.6875 37.125 C-31.84608986 34.89651875 -31.84608986 34.89651875 -32 32 C-31.34 32 -30.68 32 -30 32 C-30 32.66 -30 33.32 -30 34 C-26.20208588 31.33864799 -26.20208588 31.33864799 -24 27.375 C-23.67 26.59125 -23.34 25.8075 -23 25 C-22.21625 24.690625 -21.4325 24.38125 -20.625 24.0625 C-17.0185841 22.60276023 -16.07397734 20.21131975 -14 17 C-11.8125 15.8125 -11.8125 15.8125 -10 15 C-9.67 14.01 -9.34 13.02 -9 12 C-8.01 12 -7.02 12 -6 12 C-5.9175 11.38125 -5.835 10.7625 -5.75 10.125 C-5.37875 9.073125 -5.37875 9.073125 -5 8 C-4.34 7.71125 -3.68 7.4225 -3 7.125 C-2.34 6.75375 -1.68 6.3825 -1 6 C-0.18415432 2.94091587 -0.18415432 2.94091587 0 0 Z " fill="#E67F0F" transform="translate(200,272)"/>
<path d="M0 0 C0.495 1.98 0.495 1.98 1 4 C-0.32 4.33 -1.64 4.66 -3 5 C-3.0825 5.598125 -3.165 6.19625 -3.25 6.8125 C-4.21576779 9.62932273 -5.48868567 10.47799132 -8 12 C-8.66 12 -9.32 12 -10 12 C-10.25974609 12.58789307 -10.51949219 13.17578613 -10.78710938 13.78149414 C-12.08339911 16.15254584 -13.45338347 17.63863484 -15.40625 19.49609375 C-16.39818359 20.45805664 -16.39818359 20.45805664 -17.41015625 21.43945312 C-18.80143576 22.76962035 -20.19466247 24.09775395 -21.58984375 25.42382812 C-25.0554227 28.79145212 -27.50020222 31.30121158 -29 36 C-30.65071396 37.02611949 -32.31970006 38.02308143 -34 39 C-35.21857533 40.44304974 -36.43512514 41.88865851 -37.60546875 43.37109375 C-40.06675927 46.24604654 -42.914209 48.80807793 -46 51 C-46.66 51 -47.32 51 -48 51 C-48.24492187 51.55042969 -48.48984375 52.10085937 -48.7421875 52.66796875 C-52.59436504 59.81004948 -58.53519285 65.90893676 -64.75390625 71.0390625 C-68.29480241 74.1304188 -71.53315416 77.52535639 -74.78833008 80.91381836 C-77.3389637 83.5243082 -79.57337175 85.65382462 -83 87 C-83 84 -83 84 -81.13304138 81.80592346 C-80.25954544 80.95417038 -79.3860495 80.1024173 -78.48608398 79.22485352 C-77.76678711 78.51694672 -77.76678711 78.51694672 -77.03295898 77.79473877 C-75.99013141 76.77003502 -74.94394031 75.74874575 -73.89483452 74.73047066 C-72.23651288 73.11959952 -70.5885343 71.49879768 -68.94313049 69.8747406 C-64.26310246 65.25901657 -59.56512285 60.66176074 -54.85961914 56.07202148 C-51.98328818 53.26506293 -49.11914268 50.44613396 -46.26204109 47.61961174 C-45.16909384 46.54347674 -44.07135722 45.47218413 -42.96887016 44.40582466 C-41.42933797 42.91652731 -39.90562243 41.41262465 -38.38452148 39.90454102 C-37.07547096 38.625718 -37.07547096 38.625718 -35.73997498 37.32106018 C-33.72117296 35.17210606 -33.72117296 35.17210606 -34.22596741 32.69346619 C-34.48139816 32.13462234 -34.73682892 31.5757785 -35 31 C-34.42870361 31.24290771 -33.85740723 31.48581543 -33.26879883 31.73608398 C-30.88301209 32.27206125 -30.88301209 32.27206125 -28.9128418 30.49633789 C-28.18234619 29.74602295 -27.45185059 28.99570801 -26.69921875 28.22265625 C-25.88646484 27.39830078 -25.07371094 26.57394531 -24.23632812 25.72460938 C-23.39521484 24.84611328 -22.55410156 23.96761719 -21.6875 23.0625 C-20.44323242 21.79696289 -20.44323242 21.79696289 -19.17382812 20.50585938 C-14.79430451 16.02263749 -10.55374085 11.44995899 -6.47753906 6.68920898 C-4.42448987 4.3420432 -2.23802924 2.17021018 0 0 Z " fill="#FDCA41" transform="translate(323,155)"/>
<path d="M0 0 C0.33 0 0.66 0 1 0 C1.30080441 8.77903247 1.21338153 16.54055944 -1.2734375 25.046875 C-2.33598826 29.3656297 -2.51016446 33.65765816 -2.69140625 38.08984375 C-3 41 -3 41 -3.97973633 43.33691406 C-5.06268765 46.16362692 -5.39733477 48.50878024 -5.6328125 51.51953125 C-5.71660156 52.54111328 -5.80039063 53.56269531 -5.88671875 54.61523438 C-5.96535156 55.67033203 -6.04398437 56.72542969 -6.125 57.8125 C-6.21136719 58.88693359 -6.29773438 59.96136719 -6.38671875 61.06835938 C-6.59819131 63.71176643 -6.80237154 66.35552789 -7 69 C-7.66 69 -8.32 69 -9 69 C-8.97679688 70.01320313 -8.95359375 71.02640625 -8.9296875 72.0703125 C-8.9109159 73.42186758 -8.8927172 74.77343069 -8.875 76.125 C-8.85824219 76.79015625 -8.84148437 77.4553125 -8.82421875 78.140625 C-8.78128257 82.52011577 -9.50801527 85.90907413 -11 90 C-10.72359986 92.2875976 -10.72359986 92.2875976 -10 94 C-10.99 93.67 -11.98 93.34 -13 93 C-13.46282218 83.0938252 -11.72782159 73.61018093 -10.15625 63.8671875 C-9.86411624 62.02070533 -9.57266387 60.17411524 -9.28186035 58.3274231 C-8.51925273 53.49642174 -7.74746997 48.66693084 -6.97369385 43.83770752 C-6.18389063 38.89790105 -5.40287494 33.95670622 -4.62109375 29.015625 C-3.08927179 19.34237997 -1.54774229 9.67070958 0 0 Z " fill="#AC986F" transform="translate(134,267)"/>
<path d="M0 0 C0.66 1.32 1.32 2.64 2 4 C-14.17 20.17 -30.34 36.34 -47 53 C-48.43088528 50.13822943 -47.59991697 48.06624227 -47 45 C-46.24074219 45.0825 -45.48148438 45.165 -44.69921875 45.25 C-41.90923421 45.28342612 -41.90923421 45.28342612 -40.26953125 43.25 C-39.78871094 42.5075 -39.30789062 41.765 -38.8125 41 C-37.91657468 39.63838263 -36.98719961 38.29696606 -36 37 C-35.34 37 -34.68 37 -34 37 C-33.71125 36.4225 -33.4225 35.845 -33.125 35.25 C-32.08333333 33.16666667 -31.04166667 31.08333333 -30 29 C-28.35 29 -26.7 29 -25 29 C-25 28.01 -25 27.02 -25 26 C-24.34 26 -23.68 26 -23 26 C-22.67 24.68 -22.34 23.36 -22 22 C-21.01 22 -20.02 22 -19 22 C-15.8217901 18.7309841 -15 17.67834007 -15 13 C-14.2575 12.71125 -13.515 12.4225 -12.75 12.125 C-8.06457516 10.50631995 -8.06457516 10.50631995 -5 7 C-5.66 7 -6.32 7 -7 7 C-7 6.34 -7 5.68 -7 5 C-6.21625 4.9175 -5.4325 4.835 -4.625 4.75 C-1.85250896 4.27193661 -1.85250896 4.27193661 -0.6875 1.9375 C-0.460625 1.298125 -0.23375 0.65875 0 0 Z " fill="#E68010" transform="translate(255,219)"/>
<path d="M0 0 C0.33 0 0.66 0 1 0 C2.85207072 11.27277994 4.69552015 22.54693235 6.52793217 33.82292557 C7.37903753 39.05860054 8.23312126 44.29375346 9.09399414 49.52783203 C9.92444869 54.57764981 10.74710219 59.62868174 11.56432915 64.68065643 C11.87771706 66.60924468 12.19392809 68.53737634 12.51298714 70.46503448 C12.95889798 73.16206404 13.39480416 75.86053265 13.82836914 78.55957031 C13.96287476 79.35870346 14.09738037 80.15783661 14.23596191 80.98118591 C14.81500543 84.6493631 15.05954045 87.44569317 14 91 C10.60798908 83.48911869 9.75343521 75.5654226 9.125 67.4375 C8.43658503 59.52772245 6.97421877 52.22728305 4.8828125 44.58203125 C3.84969511 40.39013457 3.40324637 36.34140281 3.17578125 32.0390625 C3.12053774 29.93379201 3.12053774 29.93379201 2 28 C-0.21119674 18.67100936 -0.21726075 9.51119303 0 0 Z " fill="#BDBA77" transform="translate(357,221)"/>
<path d="M0 0 C3.53041169 0.11470652 4.06316908 0.39012616 6.875 2.875 C14.1875 13.27168367 14.1875 13.27168367 14.1875 18.5 C13.1975 18.5 12.2075 18.5 11.1875 18.5 C8.98458396 16.29708396 8.82649392 15.51085462 8.25 12.5625 C7.51697707 9.31960656 6.81805182 7.65226967 4.1875 5.5 C4.1875 4.84 4.1875 4.18 4.1875 3.5 C1.64865547 4.65565651 1.64865547 4.65565651 -0.8125 6.5 C-1.69908466 9.09122743 -1.69908466 9.09122743 -1.8125 11.5 C-3.7925 12.16 -5.7725 12.82 -7.8125 13.5 C-8.1425 13.17 -8.4725 12.84 -8.8125 12.5 C-9.4725 13.82 -10.1325 15.14 -10.8125 16.5 C-11.4725 16.5 -12.1325 16.5 -12.8125 16.5 C-10.95769708 9.7552621 -7.50637676 0.98444285 0 0 Z " fill="#E9A935" transform="translate(249.8125,121.5)"/>
<path d="M0 0 C2.54467804 3.19011975 4.45125748 6.52767343 6.36328125 10.12890625 C6.67774704 10.71864731 6.99221283 11.30838837 7.31620789 11.91600037 C8.31814381 13.79649956 9.31547565 15.67939291 10.3125 17.5625 C11.29651704 19.413926 12.28149174 21.26483904 13.26681519 23.11557007 C13.91172789 24.32766074 14.55571813 25.54024271 15.19876099 26.75332642 C17.7219961 31.50655208 20.32131144 36.21476786 22.95776367 40.90600586 C24 43 24 43 24 45 C23.01 45 22.02 45 21 45 C20.34 44.34 19.68 43.68 19 43 C18.34 42.67 17.68 42.34 17 42 C17.33 40.02 17.66 38.04 18 36 C16.515 35.505 16.515 35.505 15 35 C14.505 33.515 14.505 33.515 14 32 C13.34 31.67 12.68 31.34 12 31 C12 29.02 12 27.04 12 25 C11.01 25 10.02 25 9 25 C7.14223235 21.86501708 6.79859524 19.62528568 7 16 C6.34 16 5.68 16 5 16 C5 14.68 5 13.36 5 12 C4.34 12 3.68 12 3 12 C3 10.68 3 9.36 3 8 C2.01 7.67 1.02 7.34 0 7 C0 4.69 0 2.38 0 0 Z " fill="#D2A853" transform="translate(192,100)"/>
<path d="M0 0 C0.66 0.33 1.32 0.66 2 1 C1.01 1.66 0.02 2.32 -1 3 C-0.67 2.01 -0.34 1.02 0 0 Z M-4 2 C-3.01 2.66 -2.02 3.32 -1 4 C-2.375 5.5 -2.375 5.5 -4 7 C-4.66 7 -5.32 7 -6 7 C-6.2475 7.57492187 -6.495 8.14984375 -6.75 8.7421875 C-8.18881835 11.34105314 -9.86739609 13.06296019 -12 15.125 C-12.70125 15.80820312 -13.4025 16.49140625 -14.125 17.1953125 C-15.053125 18.08863281 -15.053125 18.08863281 -16 19 C-16.66 19.66 -17.32 20.32 -18 21 C-18.99 21 -19.98 21 -21 21 C-17.7844696 24.45371784 -14.57043479 27.39519182 -9.875 28.5 C-7.48885896 29.13630428 -6.74541401 30.25458599 -5 32 C-2.71095769 33.42680216 -0.36801752 34.7042923 2 36 C2 36.66 2 37.32 2 38 C-3.39396874 36.46254713 -7.93720257 33.99014962 -12.75 31.1875 C-13.51699219 30.76146484 -14.28398437 30.33542969 -15.07421875 29.89648438 C-15.80769531 29.47044922 -16.54117188 29.04441406 -17.296875 28.60546875 C-17.96041992 28.22543701 -18.62396484 27.84540527 -19.30761719 27.45385742 C-21 26 -21 26 -23 21 C-16.73 14.73 -10.46 8.46 -4 2 Z " fill="#FBC642" transform="translate(145,336)"/>
<path d="M0 0 C2.64 0 5.28 0 8 0 C5.43948131 2.92141938 2.53159446 4.49676415 -0.875 6.3203125 C-2.02484375 6.93777344 -3.1746875 7.55523437 -4.359375 8.19140625 C-4.95685547 8.50867676 -5.55433594 8.82594727 -6.16992188 9.15283203 C-7.99674551 10.12327116 -9.81896857 11.10193293 -11.640625 12.08203125 C-22.97885516 18.14518796 -22.97885516 18.14518796 -30.375 18.1875 C-31.49648437 18.20167969 -32.61796875 18.21585937 -33.7734375 18.23046875 C-36.94884842 18.00365368 -39.14234718 17.35390668 -42 16 C-38.25 14.875 -38.25 14.875 -36 16 C-34.21247508 16.14754174 -32.4183716 16.2211522 -30.625 16.25 C-29.66851562 16.27578125 -28.71203125 16.3015625 -27.7265625 16.328125 C-24.59608225 15.95139099 -23.3763224 14.98899232 -21 13 C-20.34 13 -19.68 13 -19 13 C-19 12.34 -19 11.68 -19 11 C-18.195625 10.87625 -17.39125 10.7525 -16.5625 10.625 C-15.716875 10.41875 -14.87125 10.2125 -14 10 C-13.67 9.34 -13.34 8.68 -13 8 C-10.67843403 7.59270772 -8.3431213 7.25561323 -6 7 C-6 6.34 -6 5.68 -6 5 C-4.02 4.67 -2.04 4.34 0 4 C0 2.68 0 1.36 0 0 Z " fill="#A89F72" transform="translate(280,410)"/>
<path d="M0 0 C1.0679179 3.36314444 0.9736012 6.12956636 0.625 9.625 C0.53476563 10.58664063 0.44453125 11.54828125 0.3515625 12.5390625 C0 15 0 15 -1 17 C-1.22858114 19.0374763 -1.41024278 21.08040303 -1.5625 23.125 C-1.64628906 24.22070312 -1.73007813 25.31640625 -1.81640625 26.4453125 C-1.87699219 27.28835937 -1.93757812 28.13140625 -2 29 C-2.66 29 -3.32 29 -4 29 C-3.96519531 29.6084375 -3.93039063 30.216875 -3.89453125 30.84375 C-3.62677701 39.51388727 -5.22177227 47.56400299 -7 56 C-7.83540893 53.15427639 -8.07108062 50.87797186 -7.80078125 47.9296875 C-7.72794922 47.12789062 -7.65511719 46.32609375 -7.58007812 45.5 C-7.49177734 44.63375 -7.40347656 43.7675 -7.3125 42.875 C-7.17811523 41.51761719 -7.17811523 41.51761719 -7.04101562 40.1328125 C-6.23034695 32.39223414 -5.16007172 24.69526852 -4 17 C-3.75117065 15.32719971 -3.75117065 15.32719971 -3.49731445 13.62060547 C-3.33320068 12.57018066 -3.16908691 11.51975586 -3 10.4375 C-2.855625 9.50808594 -2.71125 8.57867187 -2.5625 7.62109375 C-1.98209843 4.91658365 -1.09949762 2.53342577 0 0 Z " fill="#CAA45A" transform="translate(159,115)"/>
<path d="M0 0 C0.33 0 0.66 0 1 0 C1.19552479 6.41973077 1.12124959 12.24038621 -0.49609375 18.4609375 C-1.15549815 21.7835178 -1.31365925 25.05626238 -1.5 28.4375 C-2.40021345 44.40021345 -2.40021345 44.40021345 -5 47 C-5.23287008 48.68183948 -5.41264166 50.3712416 -5.5625 52.0625 C-5.64628906 52.98160156 -5.73007813 53.90070313 -5.81640625 54.84765625 C-5.87699219 55.55792969 -5.93757812 56.26820313 -6 57 C-6.66 57 -7.32 57 -8 57 C-7.38643985 45.13890505 -5.30162841 33.46292492 -3.4375 21.75 C-3.10442246 19.63678101 -2.77173683 17.52350021 -2.43945312 15.41015625 C-1.63082156 10.27271328 -0.81688133 5.13613739 0 0 Z " fill="#B59E69" transform="translate(143,209)"/>
<path d="M0 0 C0.33 0 0.66 0 1 0 C1 4.62 1 9.24 1 14 C0.34 14 -0.32 14 -1 14 C-0.97679688 15.01320313 -0.95359375 16.02640625 -0.9296875 17.0703125 C-0.9109159 18.42186758 -0.8927172 19.77343069 -0.875 21.125 C-0.85824219 21.79015625 -0.84148437 22.4553125 -0.82421875 23.140625 C-0.78128257 27.52011577 -1.50801527 30.90907413 -3 35 C-2.72359986 37.2875976 -2.72359986 37.2875976 -2 39 C-2.99 38.67 -3.98 38.34 -5 38 C-5.31853312 29.98986248 -4.34453239 22.39625484 -3.0625 14.5 C-2.88009766 13.32179688 -2.69769531 12.14359375 -2.50976562 10.9296875 C-1.14397321 2.28794643 -1.14397321 2.28794643 0 0 Z " fill="#B29565" transform="translate(126,322)"/>
<path d="M0 0 C0.495 1.98 0.495 1.98 1 4 C-0.32 4.33 -1.64 4.66 -3 5 C-3.0825 5.598125 -3.165 6.19625 -3.25 6.8125 C-4.21576779 9.62932273 -5.48868567 10.47799132 -8 12 C-8.66 12 -9.32 12 -10 12 C-10.24838623 12.57000732 -10.49677246 13.14001465 -10.75268555 13.72729492 C-13.23142542 18.24375402 -17.21728853 21.67203016 -20.8125 25.3125 C-21.62009766 26.16134766 -22.42769531 27.01019531 -23.25976562 27.88476562 C-24.04673828 28.68205078 -24.83371094 29.47933594 -25.64453125 30.30078125 C-26.35971924 31.03466064 -27.07490723 31.76854004 -27.81176758 32.5246582 C-30 34 -30 34 -32.7722168 33.73120117 C-33.87496948 33.36925659 -33.87496948 33.36925659 -35 33 C-34.67 32.34 -34.34 31.68 -34 31 C-32.68 31 -31.36 31 -30 31 C-27.90262463 29.47180794 -27.90262463 29.47180794 -25.91796875 27.34375 C-25.15033203 26.56773437 -24.38269531 25.79171875 -23.59179688 24.9921875 C-22.79837891 24.16976562 -22.00496094 23.34734375 -21.1875 22.5 C-20.40568359 21.70851562 -19.62386719 20.91703125 -18.81835938 20.1015625 C-14.55983468 15.76121151 -10.45055774 11.32725435 -6.49511719 6.70898438 C-4.43586471 4.35516868 -2.24455375 2.17653697 0 0 Z " fill="#CDC88A" transform="translate(323,155)"/>
<path d="M0 0 C4.25063735 5.24245274 3.72157004 12.52890373 4 19 C3.67 19 3.34 19 3 19 C2.87882812 18.19175781 2.75765625 17.38351563 2.6328125 16.55078125 C2.46523438 15.48214844 2.29765625 14.41351563 2.125 13.3125 C1.96257812 12.25675781 1.80015625 11.20101562 1.6328125 10.11328125 C1.04106931 7.20205086 0.1968194 4.71044393 -1 2 C-2.27875 1.938125 -3.5575 1.87625 -4.875 1.8125 C-5.59429687 1.77769531 -6.31359375 1.74289063 -7.0546875 1.70703125 C-8.01761719 1.85205078 -8.01761719 1.85205078 -9 2 C-9.99 3.485 -9.99 3.485 -11 5 C-13.24804497 6.6330138 -15.49369445 7.74684722 -18 9 C-18.66 8.67 -19.32 8.34 -20 8 C-18.78070272 6.69901283 -17.54907548 5.40957563 -16.3125 4.125 C-15.62800781 3.40570313 -14.94351562 2.68640625 -14.23828125 1.9453125 C-9.40862517 -2.25218964 -5.86366737 -2.60607439 0 0 Z " fill="#B9BA8C" transform="translate(344,146)"/>
<path d="M0 0 C0.33 0 0.66 0 1 0 C2.02644825 6.19122405 3.04039115 12.38440268 4.0456543 18.57910156 C4.38912767 20.68634398 4.73546415 22.79312179 5.0847168 24.89941406 C5.58614996 27.92655823 6.07727228 30.95522236 6.56640625 33.984375 C6.72468399 34.92617615 6.88296173 35.86797729 7.04603577 36.83831787 C7.18625656 37.71892883 7.32647736 38.59953979 7.47094727 39.50683594 C7.59752213 40.27960876 7.72409698 41.05238159 7.85450745 41.84857178 C8.00880136 44.13014755 7.67379661 45.82695532 7 48 C3.5372381 40.3324558 2.65977042 32.10918895 1.9375 23.8125 C1.45690564 18.49418722 0.88202318 13.26892797 0 8 C-0.11196073 5.32189925 -0.04625299 2.68267314 0 0 Z " fill="#B8B87C" transform="translate(364,264)"/>
<path d="M0 0 C-24.98265839 14.28215524 -24.98265839 14.28215524 -35 19 C-35 18.34 -35 17.68 -35 17 C-33.03720564 15.52790423 -31.09452191 14.27139799 -29 13 C-28.03320312 12.40058594 -27.06640625 11.80117188 -26.0703125 11.18359375 C-25.01585937 10.54550781 -23.96140625 9.90742188 -22.875 9.25 C-21.35519531 8.32960938 -21.35519531 8.32960938 -19.8046875 7.390625 C-17 6 -17 6 -13 6 C-13 5.34 -13 4.68 -13 4 C-12.01 4 -11.02 4 -10 4 C-10 3.34 -10 2.68 -10 2 C-8.68 2 -7.36 2 -6 2 C-6 1.34 -6 0.68 -6 0 C-3 -1 -3 -1 0 0 Z " fill="#B3A467" transform="translate(349,377)"/>
<path d="M0 0 C3.53041169 0.11470652 4.06316908 0.39012616 6.875 2.875 C14.1875 13.27168367 14.1875 13.27168367 14.1875 18.5 C13.1975 18.5 12.2075 18.5 11.1875 18.5 C8.7174862 16.0299862 8.57550815 13.85618944 7.828125 10.53515625 C6.92095039 7.65321741 5.16414271 5.74019508 3.1875 3.5 C3.1875 2.84 3.1875 2.18 3.1875 1.5 C-1.12090713 2.57710178 -4.44826723 3.53947516 -7.8125 6.5 C-5.80432559 2.19676913 -4.9885745 0.65423928 0 0 Z " fill="#B8A679" transform="translate(249.8125,121.5)"/>
<path d="M0 0 C0.33 0 0.66 0 1 0 C1.99 6.93 2.98 13.86 4 21 C-5.10714286 27.29464286 -5.10714286 27.29464286 -9 28 C-8 25 -8 25 -6.125 23.8125 C-4 23 -4 23 -1 23 C-1 22.34 -1 21.68 -1 21 C-0.34 21 0.32 21 1 21 C0.7525 19.14375 0.7525 19.14375 0.5 17.25 C-0.15112429 11.49993057 -0.08800414 5.7789386 0 0 Z " fill="#B8B073" transform="translate(376,338)"/>
<path d="M0 0 C0.33 0 0.66 0 1 0 C1.74071756 4.33995748 2.47080045 8.68153113 3.19116211 13.02490234 C3.43760693 14.50162692 3.68693051 15.97787411 3.93920898 17.45361328 C4.30172949 19.57725411 4.65379744 21.70240724 5.00390625 23.828125 C5.21861572 25.1059082 5.4333252 26.38369141 5.65454102 27.70019531 C5.95639975 30.58353289 5.97226809 32.31665829 5 35 C0.90185686 27.31356651 0.64667194 18.98950641 0.375 10.4375 C0.33632813 9.42880859 0.29765625 8.42011719 0.2578125 7.38085938 C0.16453797 4.9207436 0.07874484 2.46061634 0 0 Z " fill="#BDB97D" transform="translate(348,165)"/>
<path d="M0 0 C0.33 0 0.66 0 1 0 C1 2.64 1 5.28 1 8 C0.34 8 -0.32 8 -1 8 C-0.95359375 8.54785156 -0.9071875 9.09570312 -0.859375 9.66015625 C-0.48358567 17.91410049 -2.66315562 25.17574425 -5 33 C-6.45416501 28.2605241 -5.50435391 24.12414997 -4.75 19.3125 C-4.62753906 18.45205078 -4.50507813 17.59160156 -4.37890625 16.70507812 C-3.49399026 10.89179339 -2.04115294 5.51262117 0 0 Z " fill="#C0A064" transform="translate(164,85)"/>
<path d="M0 0 C4.84085088 0.52021084 8.01132977 1.93290144 12.125 4.5 C15.44865914 6.5635441 18.17685574 8.18565313 22 9 C23.75 10.4375 23.75 10.4375 25 12 C25 12.66 25 13.32 25 14 C19.16767782 12.40328229 14.29531388 9.47817405 9.125 6.4375 C8.24585938 5.93025391 7.36671875 5.42300781 6.4609375 4.90039062 C1.68791515 2.11736284 1.68791515 2.11736284 0 1 C0 0.67 0 0.34 0 0 Z " fill="#BAA86C" transform="translate(165,384)"/>
<path d="M0 0 C6.27110069 0.76476838 11.57825092 2.39401137 16 7 C18.28917157 8.42621073 20.63221621 9.70442019 23 11 C23 11.66 23 12.32 23 13 C17.50434318 11.46367421 12.97905386 8.84581871 8.125 5.9375 C7.34125 5.47794922 6.5575 5.01839844 5.75 4.54492188 C1.50437107 2.02639112 1.50437107 2.02639112 0 1 C0 0.67 0 0.34 0 0 Z " fill="#BEAB6B" transform="translate(124,361)"/>
<path d="M0 0 C3.5625 0.1875 3.5625 0.1875 5.5625 2.1875 C4.923125 2.47625 4.28375 2.765 3.625 3.0625 C1.41043921 4.01573451 1.41043921 4.01573451 0.5625 6.1875 C-2 6.8125 -2 6.8125 -4.4375 7.1875 C-4.48004356 5.18795254 -4.47830783 3.18708364 -4.4375 1.1875 C-3.4375 0.1875 -3.4375 0.1875 0 0 Z M-6.4375 7.1875 C-5.4475 7.6825 -5.4475 7.6825 -4.4375 8.1875 C-4.7675 9.1775 -5.0975 10.1675 -5.4375 11.1875 C-5.7675 9.8675 -6.0975 8.5475 -6.4375 7.1875 Z " fill="#F8AA21" transform="translate(171.4375,73.8125)"/>
<path d="M0 0 C4.40307479 6.60461218 5.14239158 13.04562536 5.0625 20.875 C5.05347656 22.02742188 5.04445313 23.17984375 5.03515625 24.3671875 C5.02355469 25.23601562 5.01195312 26.10484375 5 27 C4.67 27 4.34 27 4 27 C2.56778612 21.17566355 1.68952135 15.57477111 1.21875 9.59765625 C0.94698811 6.37048375 0.4976549 3.19921008 0 0 Z " fill="#D3C465" transform="translate(359,244)"/>
<path d="M0 0 C2.40875078 3.05253102 4.32543798 6.21351847 6.1875 9.625 C6.71730469 10.58664063 7.24710938 11.54828125 7.79296875 12.5390625 C9 15 9 15 9 17 C7.68 16.67 6.36 16.34 5 16 C5 14.68 5 13.36 5 12 C4.34 12 3.68 12 3 12 C3 10.68 3 9.36 3 8 C2.01 7.67 1.02 7.34 0 7 C0 4.69 0 2.38 0 0 Z " fill="#C9A462" transform="translate(192,100)"/>
<path d="M0 0 C2.15178156 2.76387192 3.98370421 5.56533069 5.6875 8.625 C6.34298828 9.78902344 6.34298828 9.78902344 7.01171875 10.9765625 C8 13 8 13 8 15 C7.01 15 6.02 15 5 15 C5 14.01 5 13.02 5 12 C4.01 12.33 3.02 12.66 2 13 C0.18884044 11.18884044 0.61800552 8.38721773 0.4375 5.9375 C0.35371094 4.83277344 0.26992187 3.72804688 0.18359375 2.58984375 C0.09271484 1.30787109 0.09271484 1.30787109 0 0 Z " fill="#D0A758" transform="translate(184,85)"/>
<path d="M0 0 C4.92127034 -0.16682272 8.50343896 -0.24828052 13 2 C13 3.65 13 5.3 13 7 C8.1725201 5.58707905 4.2837641 3.57025846 0 1 C0 0.67 0 0.34 0 0 Z " fill="#C3B061" transform="translate(152,377)"/>
<path d="M0 0 C0.33 0 0.66 0 1 0 C1.22127098 2.29045368 1.4266504 4.58244764 1.625 6.875 C1.74101562 8.15117187 1.85703125 9.42734375 1.9765625 10.7421875 C1.98429688 11.81726563 1.99203125 12.89234375 2 14 C1.34 14.66 0.68 15.32 0 16 C-0.39764263 17.98821313 -0.73775349 19.98944339 -1 22 C-1.33 22 -1.66 22 -2 22 C-2.2137731 14.31604457 -2.01670288 7.43659188 0 0 Z " fill="#CAA455" transform="translate(146,194)"/>
<path d="M0 0 C2 2 2 2 4 8 C0.37 11.63 -3.26 15.26 -7 19 C-7 14.98737662 -5.26908865 13.23173231 -3 10 C-2.67 9.34 -2.34 8.68 -2 8 C-1.01 8 -0.02 8 1 8 C0.67 5.36 0.34 2.72 0 0 Z " fill="#E6A027" transform="translate(286,182)"/>
<path d="M0 0 C0.33 0 0.66 0 1 0 C1.3690205 16.70842825 1.3690205 16.70842825 -1 25 C-1.33 25 -1.66 25 -2 25 C-2.27733386 16.4488728 -1.52016163 8.41518047 0 0 Z " fill="#C2A05C" transform="translate(134,267)"/>
<path d="M0 0 C7 8.20689655 7 8.20689655 7 13 C6.01 13 5.02 13 4 13 C3.34 12.34 2.68 11.68 2 11 C1.34 10.67 0.68 10.34 0 10 C0 6.7 0 3.4 0 0 Z " fill="#D2A553" transform="translate(209,132)"/>
<path d="M0 0 C3.18749551 -0.6374991 5.84267512 -0.86248875 9 0 C11.90355965 3.23790895 15 7.50967361 15 12 C14.34 12 13.68 12 13 12 C11.98133771 10.34467377 10.98189187 8.67739862 10 7 C9.34 6.67 8.68 6.34 8 6 C8 4.68 8 3.36 8 2 C5.36 1.67 2.72 1.34 0 1 C0 0.67 0 0.34 0 0 Z " fill="#C8AB6B" transform="translate(169,73)"/>
<path d="M0 0 C4.84659077 0.59104765 8.60748167 1.97944157 13 4 C13 4.66 13 5.32 13 6 C13.99 6 14.98 6 16 6 C16 6.99 16 7.98 16 9 C10.0942118 7.44584521 5.02261107 4.40465533 0 1 C0 0.67 0 0.34 0 0 Z " fill="#BDAD5F" transform="translate(206,407)"/>
<path d="M0 0 C-2.61970793 1.53064939 -5.24501643 3.04969748 -7.875 4.5625 C-8.99455078 5.21895508 -8.99455078 5.21895508 -10.13671875 5.88867188 C-10.85214844 6.29794922 -11.56757813 6.70722656 -12.3046875 7.12890625 C-13.2944458 7.70233765 -13.2944458 7.70233765 -14.30419922 8.28735352 C-14.86381348 8.52252686 -15.42342773 8.7577002 -16 9 C-16.66 8.67 -17.32 8.34 -18 8 C-14.375 5 -14.375 5 -11 5 C-10.67 4.01 -10.34 3.02 -10 2 C-6.22103295 -0.35135728 -4.24429961 -1.3625951 0 0 Z " fill="#ACA26C" transform="translate(367,367)"/>
<path d="M0 0 C0.33 0 0.66 0 1 0 C1.50400451 2.91602609 2.00334666 5.83272092 2.5 8.75 C2.64308594 9.575 2.78617187 10.4 2.93359375 11.25 C3.06894531 12.04921875 3.20429688 12.8484375 3.34375 13.671875 C3.46943359 14.4050293 3.59511719 15.13818359 3.72460938 15.89355469 C4 18 4 18 4 22 C3.01 22 2.02 22 1 22 C0.67 14.74 0.34 7.48 0 0 Z " fill="#BAB676" transform="translate(372,314)"/>
<path d="M0 0 C0.33 0 0.66 0 1 0 C1.22149307 5.53732687 0.84133304 9.72151196 -1 15 C-0.72359986 17.2875976 -0.72359986 17.2875976 0 19 C-0.99 18.67 -1.98 18.34 -3 18 C-3.37634203 11.19796625 -2.77471079 6.24309927 0 0 Z " fill="#C59A56" transform="translate(124,342)"/>
<path d="M0 0 C2.68541521 3.58055361 4.72424123 7.05293839 6.81640625 10.9765625 C7.96175072 13.13063947 7.96175072 13.13063947 10 15 C8.68 15 7.36 15 6 15 C3.8125 12.5 3.8125 12.5 2 10 C1.67 10 1.34 10 1 10 C0.67 6.7 0.34 3.4 0 0 Z " fill="#CBA45E" transform="translate(216,145)"/>
<path d="M0 0 C2.16444556 2.88592741 3.95137701 5.50727764 5.6875 8.625 C6.34298828 9.78902344 6.34298828 9.78902344 7.01171875 10.9765625 C8 13 8 13 8 15 C7.34 15 6.68 15 6 15 C5.34 13.35 4.68 11.7 4 10 C3.01 10 2.02 10 1 10 C0.67 6.7 0.34 3.4 0 0 Z " fill="#CBA45E" transform="translate(272,155)"/>
<path d="M0 0 C3.42771135 3.9173844 8 9.52151811 8 15 C7.01 15 6.02 15 5 15 C5 14.34 5 13.68 5 13 C4.01 13.33 3.02 13.66 2 14 C2 13.34 2 12.68 2 12 C2.66 12 3.32 12 4 12 C3.505 10.8553125 3.505 10.8553125 3 9.6875 C2 7 2 7 2 4 C1.34 4 0.68 4 0 4 C0 2.68 0 1.36 0 0 Z " fill="#C5A363" transform="translate(264,140)"/>
<path d="M0 0 C6.13722814 0.32301201 11.16230728 3.3956321 16 7 C16 7.66 16 8.32 16 9 C10.0942118 7.44584521 5.02261107 4.40465533 0 1 C0 0.67 0 0.34 0 0 Z " fill="#B1A66E" transform="translate(222,416)"/>
<path d="M0 0 C6.13722814 0.32301201 11.16230728 3.3956321 16 7 C16 7.66 16 8.32 16 9 C10.0942118 7.44584521 5.02261107 4.40465533 0 1 C0 0.67 0 0.34 0 0 Z " fill="#B7A86A" transform="translate(190,398)"/>
<path d="M0 0 C0 3.20410189 -0.33591742 4.3333335 -2 7 C-3.9453125 8.703125 -3.9453125 8.703125 -6.125 10.25 C-6.84945313 10.77078125 -7.57390625 11.2915625 -8.3203125 11.828125 C-8.87460937 12.21484375 -9.42890625 12.6015625 -10 13 C-10.66 12.67 -11.32 12.34 -12 12 C-8 8 -4 4 0 0 Z " fill="#F6CC48" transform="translate(317,164)"/>
<path d="M0 0 C-1.40844718 3.21524305 -3.10344786 5.32183868 -5.625 7.75 C-6.57246094 8.67039063 -6.57246094 8.67039063 -7.5390625 9.609375 C-8.02117187 10.06828125 -8.50328125 10.5271875 -9 11 C-9.66 10.34 -10.32 9.68 -11 9 C-10.38125 8.4225 -9.7625 7.845 -9.125 7.25 C-6.94706085 5.16930582 -6.94706085 5.16930582 -5.9375 2.8125 C-4.57058041 0.16978879 -2.85085339 0 0 0 Z " fill="#EF9D18" transform="translate(270,208)"/>
<path d="M0 0 C1.32 0.33 2.64 0.66 4 1 C3.01 1 2.02 1 1 1 C0.9175 1.61875 0.835 2.2375 0.75 2.875 C0 5 0 5 -1.75 6.25 C-4.28737029 7.0957901 -6.34234296 7.14764761 -9 7 C-8.67 6.34 -8.34 5.68 -8 5 C-7.34 5 -6.68 5 -6 5 C-6 4.34 -6 3.68 -6 3 C-5.195625 2.87625 -4.39125 2.7525 -3.5625 2.625 C-2.716875 2.41875 -1.87125 2.2125 -1 2 C-0.67 1.34 -0.34 0.68 0 0 Z " fill="#D1B352" transform="translate(267,418)"/>
<path d="M0 0 C-1.95519384 1.17192047 -3.9142539 2.3373929 -5.875 3.5 C-6.96554687 4.1496875 -8.05609375 4.799375 -9.1796875 5.46875 C-12 7 -12 7 -14 7 C-13 4 -13 4 -10.8203125 2.578125 C-9.93085938 2.13984375 -9.04140625 1.7015625 -8.125 1.25 C-7.24070312 0.80140625 -6.35640625 0.3528125 -5.4453125 -0.109375 C-3 -1 -3 -1 0 0 Z " fill="#AEA46C" transform="translate(313,397)"/>
<path d="M0 0 C1.2380014 3.57644848 0.74926071 6.33694766 0 10 C-0.99 10 -1.98 10 -3 10 C-3 10.66 -3 11.32 -3 12 C-3.66 12 -4.32 12 -5 12 C-3.68938409 7.76570244 -2.05643741 3.92592596 0 0 Z " fill="#C6A463" transform="translate(231,147)"/>
<path d="M0 0 C3.86902666 3.34962308 4.29547403 7.10071023 5 12 C5.13361545 14.36628645 5.10094731 16.62773818 5 19 C4.67 19 4.34 19 4 19 C3.81824219 17.75283203 3.81824219 17.75283203 3.6328125 16.48046875 C3.46523438 15.39378906 3.29765625 14.30710938 3.125 13.1875 C2.96257812 12.10855469 2.80015625 11.02960938 2.6328125 9.91796875 C2.14867662 6.82678207 2.14867662 6.82678207 0 4 C0 2.68 0 1.36 0 0 Z " fill="#A6B495" transform="translate(343,146)"/>
<path d="M0 0 C3.32597281 3.53105961 3.46770164 6.50235535 3.6875 11.25 C3.75324219 12.51328125 3.81898438 13.7765625 3.88671875 15.078125 C3.92410156 16.04234375 3.96148437 17.0065625 4 18 C1.66524023 15.66524023 1.69468974 14.99180291 1.4375 11.8125 C1.07819758 7.84734114 0.58646302 3.93768026 0 0 Z " fill="#E9CC55" transform="translate(351,196)"/>
<path d="M0 0 C0.66 0 1.32 0 2 0 C5 5.75 5 5.75 5 8 C4.01 8 3.02 8 2 8 C0 6 0 6 -0.125 2.875 C-0.08375 1.92625 -0.0425 0.9775 0 0 Z " fill="#D3A753" transform="translate(259,132)"/>
<path d="M0 0 C0.99 0 1.98 0 3 0 C4.35439668 2.70879335 4.06501451 5.00933268 4 8 C3.34 8 2.68 8 2 8 C0.23537317 4.91190305 0 3.76687864 0 0 Z " fill="#E7A93E" transform="translate(199,117)"/>
<path d="M0 0 C7.74468085 0.74468085 7.74468085 0.74468085 11 4 C11 4.66 11 5.32 11 6 C6.49197399 4.74194623 3.5087188 3.09592835 0 0 Z " fill="#ADA076" transform="translate(136,368)"/>
<path d="M0 0 C-1.45264038 0.8638129 -2.9123163 1.71580454 -4.375 2.5625 C-5.59316406 3.27599609 -5.59316406 3.27599609 -6.8359375 4.00390625 C-7.55007813 4.33261719 -8.26421875 4.66132813 -9 5 C-9.66 4.67 -10.32 4.34 -11 4 C-7.84441727 0.34616736 -4.73375145 -1.57791715 0 0 Z " fill="#ADA36A" transform="translate(299,405)"/>
<path d="M0 0 C1.32 0.66 2.64 1.32 4 2 C4 3.32 4 4.64 4 6 C2.68 5.67 1.36 5.34 0 5 C-0.5625 3.0625 -0.5625 3.0625 -1 1 C-0.67 0.67 -0.34 0.34 0 0 Z " fill="#DBB951" transform="translate(161,378)"/>
<path d="M0 0 C0.66 0 1.32 0 2 0 C3.23076923 5.41538462 3.23076923 5.41538462 2.0625 8.375 C1.711875 8.91125 1.36125 9.4475 1 10 C0.67 10 0.34 10 0 10 C0 6.7 0 3.4 0 0 Z " fill="#EEA632" transform="translate(135,266)"/>
<path d="M0 0 C0.66 0 1.32 0 2 0 C3.07421875 5.95703125 3.07421875 5.95703125 3 8 C2.01 8.99 1.02 9.98 0 11 C0 7.37 0 3.74 0 0 Z " fill="#F3A825" transform="translate(147,192)"/>
<path d="M0 0 C0.33 0 0.66 0 1 0 C1.36666667 5.5 1.36666667 5.5 -0.375 7.875 C-2 9 -2 9 -4 9 C-2.94124926 5.59687262 -1.99097846 2.98646769 0 0 Z " fill="#B6A26C" transform="translate(236,138)"/>
<path d="M0 0 C2.64 0 5.28 0 8 0 C6.8125 1.5 6.8125 1.5 5 3 C2.3125 3.1875 2.3125 3.1875 0 3 C0 2.01 0 1.02 0 0 Z " fill="#C8AE5C" transform="translate(280,410)"/>
<path d="M0 0 C0.33 1.32 0.66 2.64 1 4 C-0.32 4.33 -1.64 4.66 -3 5 C-3 5.66 -3 6.32 -3 7 C-3.99 7.33 -4.98 7.66 -6 8 C-4.55746343 4.63408134 -2.66735273 2.48952921 0 0 Z " fill="#A7B58F" transform="translate(323,155)"/>
<path d="M0 0 C0.33 0.99 0.66 1.98 1 3 C1.66 3.33 2.32 3.66 3 4 C2.67 4.61875 2.34 5.2375 2 5.875 C0.85806765 7.91018344 0.85806765 7.91018344 1 10 C0.34 10 -0.32 10 -1 10 C-1.125 3.375 -1.125 3.375 0 0 Z " fill="#F6A422" transform="translate(132,292)"/>
<path d="M0 0 C0.33 0.99 0.66 1.98 1 3 C-1.475 4.485 -1.475 4.485 -4 6 C-4 4.35 -4 2.7 -4 1 C-2 0 -2 0 0 0 Z " fill="#F7CB49" transform="translate(328,154)"/>
<path d="M0 0 C3.73487777 0.4979837 5.81237635 0.87491756 9 3 C9 3.66 9 4.32 9 5 C5.22454612 3.90931332 2.52956528 3.0916909 0 0 Z " fill="#F9C539" transform="translate(226,416)"/>
<path d="M0 0 C3.73487777 0.4979837 5.81237635 0.87491756 9 3 C9 3.66 9 4.32 9 5 C5.22454612 3.90931332 2.52956528 3.0916909 0 0 Z " fill="#B3A86A" transform="translate(206,407)"/>
<path d="M0 0 C4 0 4 0 5.75 1.375 C7 3 7 3 7 5 C4.0625 4.1875 4.0625 4.1875 1 3 C0.67 2.01 0.34 1.02 0 0 Z " fill="#BFAB62" transform="translate(183,393)"/>
<path d="M0 0 C1.65 0 3.3 0 5 0 C3.35 1.98 1.7 3.96 0 6 C-1 3 -1 3 0 0 Z " fill="#EF9E17" transform="translate(273,201)"/>
<path d="M0 0 C0.33 0 0.66 0 1 0 C1.36923077 6.52307692 1.36923077 6.52307692 -0.5 8.9375 C-0.995 9.288125 -1.49 9.63875 -2 10 C-2 8.02 -2 6.04 -2 4 C-1.34 4 -0.68 4 0 4 C0 2.68 0 1.36 0 0 Z " fill="#F9A91B" transform="translate(165,89)"/>
</svg>
